<svg xmlns="http://www.w3.org/2000/svg" xmlns:xlink="http://www.w3.org/1999/xlink" viewBox="0 0 853 570"><defs><style>.cls-1{opacity:0.45;}.cls-2,.cls-6{fill:#fff;}.cls-3{fill:url(#未命名漸層_65);}.cls-4{fill:url(#未命名漸層_2);}.cls-5{fill:none;}.cls-6{stroke:#b9ebf5;stroke-miterlimit:10;}.cls-7{fill:#b9ebf5;}</style><linearGradient id="未命名漸層_65" x1="-69.46" y1="327.17" x2="852.37" y2="213.74" gradientUnits="userSpaceOnUse"><stop offset="0" stop-color="#fff" stop-opacity="0.5"/><stop offset="0.3" stop-color="#b9ebf5"/><stop offset="0.63" stop-color="#b9ebf5"/><stop offset="0.84" stop-color="#fff" stop-opacity="0.7"/></linearGradient><linearGradient id="未命名漸層_2" x1="541.23" y1="285" x2="847.53" y2="285" gradientUnits="userSpaceOnUse"><stop offset="0.03" stop-color="#fff"/><stop offset="0.43" stop-color="#b9ebf5"/><stop offset="0.63" stop-color="#b9ebf5"/><stop offset="1" stop-color="#fff" stop-opacity="0.7"/></linearGradient></defs><g id="圖層_20" data-name="圖層 20"><g id="圖層_2" data-name="圖層 2"><g id="圖層_5" data-name="圖層 5"><g id="圖層_18" data-name="圖層 18"><g class="cls-1"><path class="cls-2" d="M0,5.23C2.5,3.44,5,1.71,7.58,0H0Z"/></g></g><g id="圖層_12" data-name="圖層 12"><path class="cls-3" d="M0,570H546.47c-4.46-24.28,1.82-51.74,18.21-67.66,24.81-24.1,65.71-22.75,82.63-55,8.57-16.33,8.15-37.16,4.7-55.93s-9.62-36.84-11.77-55.89c-4.87-43.18,13.39-88.78,44.73-111.78,20.72-15.18,45.35-20.52,68.3-30.26S799.44,167.1,807.55,140c5.38-18,3.23-37.79,4.28-56.87a161.16,161.16,0,0,1,17.84-65.64A88.61,88.61,0,0,1,841.3,0H0ZM350.34,201.64A141.71,141.71,0,0,1,489.92,367.13H210.75A141.71,141.71,0,0,1,350.34,201.64Z"/><path class="cls-4" d="M826.18,14.35a160.85,160.85,0,0,0-16.09,45.9c-3.06,16.16-3,32.31-3.25,48.68-.29,16.13-2.23,31.95-11,45.85-15.68,24.79-43.79,34.76-70,44.22-14.44,5.2-29,10.85-41.59,19.73a106.68,106.68,0,0,0-26.89,27.78C641.77,269.62,634,298.33,635,326.13c1.2,32.83,17.41,63.82,14.43,96.95-1.29,14.36-7,27.59-18.15,37-8.93,7.52-20,12.07-30.69,16.55-22,9.26-42.78,19.83-52.88,42.8A88.47,88.47,0,0,0,541.83,570h9a82.16,82.16,0,0,1,2.55-40.42,58.24,58.24,0,0,1,18.69-27.81c9.33-7.48,20.61-12.14,31.54-16.74,20.88-8.79,41.37-18.95,50.21-41.31,11.76-29.73.17-61.77-6.22-91.23-6.27-29-4.3-58.76,8.58-85.76A109.29,109.29,0,0,1,678.71,235c10.62-10.24,23.7-17.2,37.31-22.63,25.48-10.18,52.3-17,73.15-35.84A79.49,79.49,0,0,0,810.28,146c5.69-14.92,5.6-31.22,5.7-47,.11-18.23,1.73-36,7.07-53.52,4.87-16,12.21-33.66,24.47-45.45H835.44A95.48,95.48,0,0,0,826.18,14.35Z"/></g></g></g><polygon class="cls-2" points="302.03 158.13 289.37 158.13 289.37 149.41 325.09 149.41 325.09 158.13 312.43 158.13 312.43 195.41 302.03 195.41 302.03 158.13"/><path class="cls-2" d="M328.44,160.4h8.47l.74,6.11h.26c2.55-4.67,6.38-7,9.95-7a9.92,9.92,0,0,1,4.18.7l-1.73,9a14.21,14.21,0,0,0-3.78-.57c-2.64,0-5.85,1.71-7.71,6.48v20.29H328.44Z"/><path class="cls-2" d="M355.73,149.85c0-3.18,2.52-5.42,6-5.42s6,2.24,6,5.42-2.53,5.42-6,5.42S355.73,153,355.73,149.85Z"/><rect class="cls-2" x="356.53" y="160.4" width="10.37" height="35.01"/><path class="cls-2" d="M376,160.4h8.46l.75,3.44h.26c2.75-2.45,6.32-4.29,10-4.29,8.48,0,13.67,7,13.67,17.8,0,12-7.15,18.91-14.73,18.91A12.21,12.21,0,0,1,386,192.6l.34,5.54V208.4H376Zm22.47,17.07c0-6.29-1.94-9.43-6.08-9.43-2.13,0-4,1-6,3.13v14.38a8.4,8.4,0,0,0,5.59,2.22C395.59,187.77,398.48,184.71,398.48,177.47Z"/></g><g id="cover對味"><rect class="cls-5" width="853" height="570"/></g><g id="圖層_7" data-name="圖層 7"><rect class="cls-6" x="297.66" y="277.24" width="24.94" height="8.91" rx="4.45"/><rect class="cls-7" x="173.43" y="258.99" width="71.24" height="17.81" rx="8.91"/><rect class="cls-7" x="454.84" y="278.58" width="71.24" height="17.81" rx="8.91"/><rect class="cls-6" x="244.67" y="246.52" width="20.48" height="8.91" rx="4.45"/><rect class="cls-6" x="294.1" y="241.62" width="16.03" height="8.91" rx="4.45"/><rect class="cls-6" x="182.78" y="260.32" width="58.78" height="15.14" rx="7.57"/><rect class="cls-6" x="460.63" y="279.91" width="58.78" height="15.14" rx="7.57"/></g></svg>