<svg xmlns="http://www.w3.org/2000/svg" xmlns:xlink="http://www.w3.org/1999/xlink" viewBox="0 0 853 570"><defs><style>.cls-1{opacity:0.45;}.cls-15,.cls-2{fill:#fff;}.cls-3{fill:url(#未命名漸層_65);}.cls-4{fill:url(#未命名漸層_2);}.cls-5{fill:none;}.cls-16,.cls-6{fill:#b9ebf5;}.cls-6{stroke:#fff;stroke-width:2px;}.cls-11,.cls-12,.cls-14,.cls-15,.cls-6{stroke-miterlimit:10;}.cls-7{fill:#f19655;}.cls-11,.cls-12,.cls-8{fill:#91ada5;}.cls-9{isolation:isolate;}.cls-10{fill:#bddbd1;}.cls-11,.cls-12{stroke:#91ada5;stroke-width:3px;}.cls-12{opacity:0.36;}.cls-13{fill:#efb9a9;}.cls-14{fill:#eae0cb;stroke:#efb9a9;}.cls-15{stroke:#b9ebf5;}</style><linearGradient id="未命名漸層_65" x1="-69.46" y1="327.17" x2="852.37" y2="213.74" gradientUnits="userSpaceOnUse"><stop offset="0" stop-color="#fff" stop-opacity="0.5"/><stop offset="0.3" stop-color="#b9ebf5"/><stop offset="0.63" stop-color="#b9ebf5"/><stop offset="0.84" stop-color="#fff" stop-opacity="0.7"/></linearGradient><linearGradient id="未命名漸層_2" x1="541.23" y1="285" x2="847.53" y2="285" gradientUnits="userSpaceOnUse"><stop offset="0.03" stop-color="#fff"/><stop offset="0.43" stop-color="#b9ebf5"/><stop offset="0.63" stop-color="#b9ebf5"/><stop offset="1" stop-color="#fff" stop-opacity="0.7"/></linearGradient></defs><g id="圖層_20" data-name="圖層 20"><g id="圖層_2" data-name="圖層 2"><g id="圖層_5" data-name="圖層 5"><g id="圖層_18" data-name="圖層 18"><g class="cls-1"><path class="cls-2" d="M0,5.23C2.5,3.44,5,1.71,7.58,0H0Z"/></g></g><g id="圖層_12" data-name="圖層 12"><path class="cls-3" d="M0,570H546.47c-4.46-24.28,1.82-51.74,18.21-67.66,24.81-24.1,65.71-22.75,82.63-55,8.57-16.33,8.15-37.16,4.7-55.93s-9.62-36.84-11.77-55.89c-4.87-43.18,13.39-88.78,44.73-111.78,20.72-15.18,45.35-20.52,68.3-30.26S799.44,167.1,807.55,140c5.38-18,3.23-37.79,4.28-56.87a161.16,161.16,0,0,1,17.84-65.64A88.61,88.61,0,0,1,841.3,0H0ZM350.34,201.64A141.71,141.71,0,0,1,489.92,367.13H210.75A141.71,141.71,0,0,1,350.34,201.64Z"/><path class="cls-4" d="M826.18,14.35a160.85,160.85,0,0,0-16.09,45.9c-3.06,16.16-3,32.31-3.25,48.68-.29,16.13-2.23,31.95-11,45.85-15.68,24.79-43.79,34.76-70,44.22-14.44,5.2-29,10.85-41.59,19.73a106.68,106.68,0,0,0-26.89,27.78C641.77,269.62,634,298.33,635,326.13c1.2,32.83,17.41,63.82,14.43,96.95-1.29,14.36-7,27.59-18.15,37-8.93,7.52-20,12.07-30.69,16.55-22,9.26-42.78,19.83-52.88,42.8A88.47,88.47,0,0,0,541.83,570h9a82.16,82.16,0,0,1,2.55-40.42,58.24,58.24,0,0,1,18.69-27.81c9.33-7.48,20.61-12.14,31.54-16.74,20.88-8.79,41.37-18.95,50.21-41.31,11.76-29.73.17-61.77-6.22-91.23-6.27-29-4.3-58.76,8.58-85.76A109.29,109.29,0,0,1,678.71,235c10.62-10.24,23.7-17.2,37.31-22.63,25.48-10.18,52.3-17,73.15-35.84A79.49,79.49,0,0,0,810.28,146c5.69-14.92,5.6-31.22,5.7-47,.11-18.23,1.73-36,7.07-53.52,4.87-16,12.21-33.66,24.47-45.45H835.44A95.48,95.48,0,0,0,826.18,14.35Z"/></g></g></g><polygon class="cls-2" points="302.03 158.13 289.37 158.13 289.37 149.41 325.09 149.41 325.09 158.13 312.43 158.13 312.43 195.41 302.03 195.41 302.03 158.13"/><path class="cls-2" d="M328.44,160.4h8.47l.74,6.11h.26c2.55-4.67,6.38-7,9.95-7a9.92,9.92,0,0,1,4.18.7l-1.73,9a14.21,14.21,0,0,0-3.78-.57c-2.64,0-5.85,1.71-7.71,6.48v20.29H328.44Z"/><path class="cls-2" d="M355.73,149.85c0-3.18,2.52-5.42,6-5.42s6,2.24,6,5.42-2.53,5.42-6,5.42S355.73,153,355.73,149.85Z"/><rect class="cls-2" x="356.53" y="160.4" width="10.37" height="35.01"/><path class="cls-2" d="M376,160.4h8.46l.75,3.44h.26c2.75-2.45,6.32-4.29,10-4.29,8.48,0,13.67,7,13.67,17.8,0,12-7.15,18.91-14.73,18.91A12.21,12.21,0,0,1,386,192.6l.34,5.54V208.4H376Zm22.47,17.07c0-6.29-1.94-9.43-6.08-9.43-2.13,0-4,1-6,3.13v14.38a8.4,8.4,0,0,0,5.59,2.22C395.59,187.77,398.48,184.71,398.48,177.47Z"/></g><g id="cover對味"><rect class="cls-5" width="853" height="570"/></g><g id="圖層_10" data-name="圖層 10"><path class="cls-6" d="M333.72,212.15h15.74c9.55,0,17,2.62,17,11.4,0,4.13-2.3,8.52-6.06,9.93v.29c4.7,1.22,8.33,4.68,8.33,10.82,0,9.36-7.91,13.55-17.92,13.55h-17ZM349,230.57c5,0,7.28-2.13,7.28-5.48,0-3.54-2.36-4.92-7.21-4.92h-4.93v10.4Zm.95,19.55c5.66,0,8.59-2,8.59-6.2,0-4-2.88-5.68-8.59-5.68h-5.81v11.88Z"/><path class="cls-6" d="M375.55,247.26V208.7h10.38v39c0,2.22,1,2.93,1.87,2.93a4.56,4.56,0,0,0,1.27-.14l1.24,7.65a13.45,13.45,0,0,1-5.21.86C378,259,375.55,254.35,375.55,247.26Z"/><path class="cls-6" d="M393.7,240.65c0-11.64,8.2-18.37,17.06-18.37s17.05,6.73,17.05,18.37S419.62,259,410.76,259,393.7,252.27,393.7,240.65Zm23.48,0c0-6.06-2.13-10-6.42-10s-6.43,3.93-6.43,10,2.14,10,6.43,10S417.18,246.71,417.18,240.65Z"/><path class="cls-6" d="M432.76,264.16c0-2.91,1.74-5.26,5-7.05v-.29a6.78,6.78,0,0,1-3.2-5.94c0-2.52,1.68-5,3.91-6.56V244a11.19,11.19,0,0,1-4.7-9.09c0-8.4,6.94-12.67,14.48-12.67a17,17,0,0,1,5.42.85h12.81v7.56h-5.63A9.22,9.22,0,0,1,462,235.3c0,8.06-6.13,11.77-13.78,11.77a15.28,15.28,0,0,1-4.28-.68,3,3,0,0,0-1.22,2.6c0,1.73,1.42,2.57,5.24,2.57h5.68c8.59,0,13.37,2.63,13.37,8.9,0,7.27-7.58,12.57-19.6,12.57C439.26,273,432.76,270.38,432.76,264.16Zm24.31-1.93c0-2.21-1.9-2.71-5.34-2.71h-3.64a18.84,18.84,0,0,1-4.9-.45,4.4,4.4,0,0,0-1.9,3.43c0,2.66,3.08,4,7.77,4S457.07,264.65,457.07,262.23ZM453,235c0-3.73-2-5.69-4.78-5.69s-4.78,2-4.78,5.69,2.05,5.84,4.78,5.84S453,238.79,453,235Z"/><g id="logo"><g id="logo-body"><path id="r-text" class="cls-7" d="M244.73,210.87h4.19V216a20.15,20.15,0,0,1,4.07-4.19,7.71,7.71,0,0,1,4.66-1.49c.29,0,.62,0,1,.05a3.14,3.14,0,0,1,.95.24v4.95a6,6,0,0,0-2.08-.36,8.71,8.71,0,0,0-3.63.72,7.93,7.93,0,0,0-2.7,2,8.69,8.69,0,0,0-1.67,2.86,9.81,9.81,0,0,0-.58,3.36v9.75h-4.19Z"/><path id="i-text" class="cls-7" d="M271,203.78v5.75h-4.15v-5.75Zm0,9.17v20.88h-4.15V213Z"/><polygon id="t-text" class="cls-7" points="241.13 199.93 241.13 204.75 230.78 204.75 230.78 233.29 226.27 233.29 226.27 204.75 215.93 204.75 215.93 199.93 241.13 199.93"/><path id="g-text" class="cls-8" d="M463.75,348.27c0,2.37-.39,30.49-1.18,32.27a13.37,13.37,0,0,1-3.14,4.51,13,13,0,0,1-4.51,2.75,15.72,15.72,0,0,1-9.67.3,12.35,12.35,0,0,1-3.81-1.89,13.21,13.21,0,0,1-3.1-3.25,19.45,19.45,0,0,1-2.31-4.68h4.42a10.11,10.11,0,0,0,3.66,4.51,10.31,10.31,0,0,0,5.54,1.4,10,10,0,0,0,3.74-.71,9.51,9.51,0,0,0,3.09-2,9.79,9.79,0,0,0,2.11-3.05c.52-1.17.79-28.5.79-29.9v-6a13.85,13.85,0,0,1-2.36,2.77,11.23,11.23,0,0,1-2.53,1.72,10.18,10.18,0,0,1-2.58.9,11.88,11.88,0,0,1-2.45.26,12.92,12.92,0,0,1-6.11-1.42,14.17,14.17,0,0,1-4.62-3.85,17.44,17.44,0,0,1-2.94-5.71,24.22,24.22,0,0,1,0-13.91,17.3,17.3,0,0,1,2.88-5.61,13.82,13.82,0,0,1,4.51-3.76,12.44,12.44,0,0,1,5.85-1.39c.73,0,1.5,0,2.32.12a8.91,8.91,0,0,1,2.57.65,11.26,11.26,0,0,1,2.71,1.65,14.75,14.75,0,0,1,2.77,3.08v-4.9h4.37Zm-4.37-18.44a19.6,19.6,0,0,0-.71-5,13.73,13.73,0,0,0-1.91-4.08,9.39,9.39,0,0,0-3-2.75,8,8,0,0,0-4-1,9.17,9.17,0,0,0-4.29,1,10.53,10.53,0,0,0-3.38,2.83,13.75,13.75,0,0,0-2.23,4.21,16.16,16.16,0,0,0-.81,5.18,16.59,16.59,0,0,0,.81,5.22,13.9,13.9,0,0,0,2.23,4.26,10.82,10.82,0,0,0,3.38,2.88,8.86,8.86,0,0,0,4.29,1.07,7.94,7.94,0,0,0,4.07-1.05,9.43,9.43,0,0,0,3-2.84,13.64,13.64,0,0,0,1.89-4.21,19.6,19.6,0,0,0,.66-5.18Z"/><path id="l-text" class="cls-8" d="M388.88,284.3v53.82h28.87v9.19H378.41v-63Z"/><g id="b-mountain"><g class="cls-9"><polygon class="cls-8" points="266.86 321.98 273.94 314.4 274.26 338.21 267.18 345.79 266.86 321.98"/><path class="cls-8" d="M273.23,303l7.08-7.58-.3.33a23.27,23.27,0,0,0-4.51,7.87,31.34,31.34,0,0,0-1.56,10.74L266.86,322a31.34,31.34,0,0,1,1.56-10.74,23.27,23.27,0,0,1,4.51-7.87Z"/><polygon class="cls-10" points="309.12 314.11 316.19 306.53 317.68 306.5 310.6 314.08 309.12 314.11"/><polygon class="cls-10" points="310.6 314.08 317.68 306.5 319.17 306.47 312.09 314.05 310.6 314.08"/><path class="cls-10" d="M307,292.68c3.7,2.19,9,8.52,9.23,13.85-2.36,2.52-4.73,5.05-7.08,7.58-.24-5.33-5.53-11.66-9.23-13.85a23.8,23.8,0,0,0-12.14-3.39,19.7,19.7,0,0,0-8.13,1.64,19.18,19.18,0,0,0-6.39,4.53l7.08-7.58a19.18,19.18,0,0,1,6.39-4.53,19.7,19.7,0,0,1,8.13-1.64A23.8,23.8,0,0,1,307,292.68Z"/><path class="cls-8" d="M271,301l7.08-7.58a22.22,22.22,0,0,1,7.36-5.23,22.92,22.92,0,0,1,9.33-1.88,27,27,0,0,1,13.65,3.82,25.52,25.52,0,0,1,7.69,7.83l-7.08,7.58a25.52,25.52,0,0,0-7.69-7.83,27,27,0,0,0-13.65-3.82,22.92,22.92,0,0,0-9.33,1.88A22.22,22.22,0,0,0,271,301Z"/><polygon class="cls-8" points="267.18 345.79 274.26 338.21 368.12 339.01 361.04 346.59 267.18 345.79"/><path class="cls-8" d="M318.28,285.65l7.08-7.58a25.29,25.29,0,0,0-2.72,3.51c-1.59,2.47-4.17,9-3.48,24.74l-7.08,7.58c-.69-15.78,1.89-22.27,3.48-24.74A25.29,25.29,0,0,1,318.28,285.65Z"/><polygon class="cls-10" points="360.49 306.03 367.57 298.45 368.12 339.01 361.04 346.59 360.49 306.03"/><path class="cls-10" d="M318.28,285.65l7.08-7.58a20.15,20.15,0,0,1,2.54-2.3,19.15,19.15,0,0,1,6.34-3.16,26.35,26.35,0,0,1,7.22-.94l-7.08,7.58a26.35,26.35,0,0,0-7.22.94,19.15,19.15,0,0,0-6.34,3.16A20.15,20.15,0,0,0,318.28,285.65Z"/><polygon class="cls-8" points="363.46 306.06 370.54 298.48 371.12 341.99 364.04 349.57 363.46 306.06"/><path class="cls-10" d="M365.41,288.48a26.06,26.06,0,0,1,2.16,10q-3.12,3.35-6.25,6.7l-.83.88a26.06,26.06,0,0,0-2.16-10l1.71-1.82,5.37-5.76Z"/><path class="cls-10" d="M365.41,288.48l-7.08,7.58a29.09,29.09,0,0,0-5.67-8.6l7.08-7.58-7.08,7.58a27.73,27.73,0,0,0-8.29-6,23.81,23.81,0,0,0-10-2.25l7.08-7.58a23.81,23.81,0,0,1,10,2.25,27.61,27.61,0,0,1,8.29,6A29.09,29.09,0,0,1,365.41,288.48Z"/><path class="cls-10" d="M334.38,279.25a23.81,23.81,0,0,1,10,2.25,27.61,27.61,0,0,1,8.29,6,29.22,29.22,0,0,1,5.67,8.6,26.06,26.06,0,0,1,2.16,10l.55,40.56-93.86-.8L266.86,322a31.34,31.34,0,0,1,1.56-10.74,23.27,23.27,0,0,1,4.51-7.87,19.2,19.2,0,0,1,6.69-4.86,19.7,19.7,0,0,1,8.13-1.64,23.8,23.8,0,0,1,12.14,3.39c3.7,2.19,9,8.52,9.23,13.85l1.48,0,1.49,0c-.7-15.93,1.88-22.42,3.47-24.89a22.72,22.72,0,0,1,5.26-5.81,19.15,19.15,0,0,1,6.34-3.16A26.35,26.35,0,0,1,334.38,279.25Z"/><path class="cls-8" d="M361.05,294.94l7.08-7.58a28.73,28.73,0,0,1,2.41,11.12l-7.08,7.58A28.73,28.73,0,0,0,361.05,294.94Z"/><path class="cls-8" d="M316.09,283.6l7.08-7.58a22.9,22.9,0,0,1,2.9-2.63,22,22,0,0,1,7.31-3.63,28.86,28.86,0,0,1,8-1.05,26.74,26.74,0,0,1,11.25,2.53,30.41,30.41,0,0,1,9.2,6.63,32,32,0,0,1,6.26,9.49l-7.08,7.58a32,32,0,0,0-6.26-9.49,30.41,30.41,0,0,0-9.2-6.63,26.74,26.74,0,0,0-11.25-2.53,28.86,28.86,0,0,0-8,1A22,22,0,0,0,319,281,22.9,22.9,0,0,0,316.09,283.6Z"/><path class="cls-8" d="M361.05,294.94a28.73,28.73,0,0,1,2.41,11.12l.58,43.51-99.79-.84L263.89,322a34.16,34.16,0,0,1,1.72-11.74,26.21,26.21,0,0,1,5.09-8.85,22.29,22.29,0,0,1,7.68-5.58,22.92,22.92,0,0,1,9.33-1.88,27,27,0,0,1,13.65,3.82,25.52,25.52,0,0,1,7.69,7.83c.29-8.22,1.64-14.37,4-18A25.45,25.45,0,0,1,319,281a22,22,0,0,1,7.31-3.63,28.86,28.86,0,0,1,8-1,26.74,26.74,0,0,1,11.25,2.53,30.41,30.41,0,0,1,9.2,6.63A32,32,0,0,1,361.05,294.94Zm0,51.65L360.49,306a26.06,26.06,0,0,0-2.16-10,29.22,29.22,0,0,0-5.67-8.6,27.61,27.61,0,0,0-8.29-6,23.81,23.81,0,0,0-10-2.25,26.35,26.35,0,0,0-7.22.94,19.15,19.15,0,0,0-6.34,3.16,22.72,22.72,0,0,0-5.26,5.81c-1.59,2.47-4.17,9-3.48,24.74l-1.48.18-1.48,0c-.24-5.34-5.53-11.67-9.23-13.86a23.8,23.8,0,0,0-12.14-3.39,19.7,19.7,0,0,0-8.13,1.64,19.2,19.2,0,0,0-6.69,4.86,23.27,23.27,0,0,0-4.51,7.87A31.34,31.34,0,0,0,266.86,322l.32,23.81,93.86.8"/></g><path class="cls-11" d="M294.5,341.8V324.45a16.16,16.16,0,0,0-.92-5.55,13.87,13.87,0,0,0-2.5-4.34,11.18,11.18,0,0,0-3.68-2.82,10.3,10.3,0,0,0-4.48-1,11,11,0,0,0-4.07.74,8.6,8.6,0,0,0-3.24,2.26,10.62,10.62,0,0,0-2.14,3.86,18.26,18.26,0,0,0-.77,5.62V341.8Z"/><path class="cls-12" d="M345.52,341.8V325.4c0-2.11-.3-8.4-.92-10.56a19,19,0,0,0-2.75-5.85,14.31,14.31,0,0,0-4.68-4.23,13.55,13.55,0,0,0-6.8-1.62,13.37,13.37,0,0,0-6.1,1.45c-1.9,1-1.5.28-3,2.11a21.09,21.09,0,0,0-3.46,6.7,29.12,29.12,0,0,0-1.26,8.88V341.8Z"/></g><g id="flag"><rect class="cls-7" x="281.14" y="204.6" width="4.15" height="82.98"/><polyline class="cls-7" points="287.36 239.87 287.36 204.6 324.71 223.27"/></g><g id="o-man"><g id="body"><path id="feet_right" class="cls-13" d="M416.06,332.08c0,2.83-1.11,5.13-2.48,5.13s-2.47-2.3-2.47-5.13,1.1-5.13,2.47-5.13S416.06,329.25,416.06,332.08Z"/><path id="feet_left" class="cls-13" d="M427.19,332.08c0,2.83-1.1,5.13-2.47,5.13s-2.47-2.3-2.47-5.13,1.1-5.13,2.47-5.13S427.19,329.25,427.19,332.08Z"/><path id="hand_right" class="cls-13" d="M396.37,297.6c2.32,1.54,3.59,3.74,2.85,4.92s-3.22.88-5.54-.66-3.6-3.74-2.85-4.92S394.05,296.06,396.37,297.6Z"/><path id="hand_left" class="cls-13" d="M439.06,309c2.32,1.54,3.59,3.74,2.85,4.91s-3.22.89-5.54-.65-3.6-3.74-2.85-4.92S436.74,307.48,439.06,309Z"/><path class="cls-14" d="M401.05,304a29.83,29.83,0,0,1,1.2-8.57,21.27,21.27,0,0,1,3.53-7,17.91,17.91,0,0,1,21.51-4.73,17.47,17.47,0,0,1,5.82,4.73,20.83,20.83,0,0,1,3.6,7,30.71,30.71,0,0,1,0,17.14,20.46,20.46,0,0,1-3.6,7,18.17,18.17,0,0,1-21.57,4.69,16.84,16.84,0,0,1-5.76-4.69,20.88,20.88,0,0,1-3.53-7A29.73,29.73,0,0,1,401.05,304Zm8.88-.69a15.27,15.27,0,0,0,.63,4.44,11.06,11.06,0,0,0,1.82,3.63,9,9,0,0,0,2.89,2.46,8.56,8.56,0,0,0,7.64,0,9,9,0,0,0,2.9-2.46,11.29,11.29,0,0,0,1.84-3.63,15.56,15.56,0,0,0,0-8.9,11.6,11.6,0,0,0-1.84-3.67,8.91,8.91,0,0,0-2.9-2.47,8.56,8.56,0,0,0-7.64,0,8.88,8.88,0,0,0-2.89,2.47,11.36,11.36,0,0,0-1.82,3.67A15.41,15.41,0,0,0,409.93,303.27Z"/></g><g id="hat"><polygon class="cls-13" points="427.71 291.25 413.12 285.94 418.31 270.98 432.89 276.3 427.71 291.25"/><polygon class="cls-13" points="413.08 285.93 407.65 283.95 409.6 278.34 415.03 280.32 413.08 285.93"/></g></g></g></g><rect class="cls-15" x="297.66" y="277.24" width="24.94" height="8.91" rx="4.45"/><rect class="cls-16" x="173.43" y="258.99" width="71.24" height="17.81" rx="8.91"/><rect class="cls-16" x="454.84" y="278.58" width="71.24" height="17.81" rx="8.91"/><rect class="cls-15" x="244.67" y="246.52" width="20.48" height="8.91" rx="4.45"/><rect class="cls-15" x="294.1" y="241.62" width="16.03" height="8.91" rx="4.45"/><rect class="cls-15" x="182.78" y="260.32" width="58.78" height="15.14" rx="7.57"/><rect class="cls-15" x="460.63" y="279.91" width="58.78" height="15.14" rx="7.57"/></g></svg>