<svg xmlns="http://www.w3.org/2000/svg" viewBox="0 0 319.8 570"><defs><style>.cls-1{fill:none;}.cls-2{fill:#f19655;}.cls-3,.cls-6,.cls-7{fill:#91ada5;}.cls-4{isolation:isolate;}.cls-5{fill:#bddbd1;}.cls-6,.cls-7{stroke:#91ada5;stroke-width:3px;}.cls-10,.cls-6,.cls-7,.cls-9{stroke-miterlimit:10;}.cls-7{opacity:0.36;}.cls-8{fill:#efb9a9;}.cls-9{fill:#eae0cb;stroke:#efb9a9;}.cls-10{fill:#b9ebf5;stroke:#fff;stroke-width:2px;}</style></defs><g id="圖層_3" data-name="圖層 3"><rect class="cls-1" width="319.8" height="570"/></g><g id="圖層_10" data-name="圖層 10"><g id="logo"><g id="logo-body"><path id="r-text" class="cls-2" d="M244.73,210.87h4.19V216a20.15,20.15,0,0,1,4.07-4.19,7.71,7.71,0,0,1,4.66-1.49c.29,0,.62,0,1,.05a3.14,3.14,0,0,1,.95.24v4.95a6,6,0,0,0-2.08-.36,8.71,8.71,0,0,0-3.63.72,7.93,7.93,0,0,0-2.7,2,8.69,8.69,0,0,0-1.67,2.86,9.81,9.81,0,0,0-.58,3.36v9.75h-4.19Z" transform="translate(-213.2)"/><path id="i-text" class="cls-2" d="M271,203.78v5.75h-4.15v-5.75Zm0,9.17v20.88h-4.15V213Z" transform="translate(-213.2)"/><polygon id="t-text" class="cls-2" points="27.93 199.93 27.93 204.75 17.58 204.75 17.58 233.29 13.07 233.29 13.07 204.75 2.73 204.75 2.73 199.93 27.93 199.93"/><path id="g-text" class="cls-3" d="M463.75,348.27c0,2.37-.39,30.49-1.18,32.27a13.37,13.37,0,0,1-3.14,4.51,13,13,0,0,1-4.51,2.75,15.72,15.72,0,0,1-9.67.3,12.35,12.35,0,0,1-3.81-1.89,13.21,13.21,0,0,1-3.1-3.25,19.45,19.45,0,0,1-2.31-4.68h4.42a10.11,10.11,0,0,0,3.66,4.51,10.31,10.31,0,0,0,5.54,1.4,10,10,0,0,0,3.74-.71,9.51,9.51,0,0,0,3.09-2,9.79,9.79,0,0,0,2.11-3.05c.52-1.17.79-28.5.79-29.9v-6a13.85,13.85,0,0,1-2.36,2.77,11.23,11.23,0,0,1-2.53,1.72,10.18,10.18,0,0,1-2.58.9,11.88,11.88,0,0,1-2.45.26,12.92,12.92,0,0,1-6.11-1.42,14.17,14.17,0,0,1-4.62-3.85,17.44,17.44,0,0,1-2.94-5.71,24.22,24.22,0,0,1,0-13.91,17.3,17.3,0,0,1,2.88-5.61,13.82,13.82,0,0,1,4.51-3.76,12.44,12.44,0,0,1,5.85-1.39c.73,0,1.5,0,2.32.12a8.91,8.91,0,0,1,2.57.65,11.26,11.26,0,0,1,2.71,1.65,14.75,14.75,0,0,1,2.77,3.08v-4.9h4.37Zm-4.37-18.44a19.6,19.6,0,0,0-.71-5,13.73,13.73,0,0,0-1.91-4.08,9.5,9.5,0,0,0-3-2.75,8,8,0,0,0-4-1,9.17,9.17,0,0,0-4.29,1,10.53,10.53,0,0,0-3.38,2.83,13.75,13.75,0,0,0-2.23,4.21,16.16,16.16,0,0,0-.81,5.18,16.59,16.59,0,0,0,.81,5.22,13.9,13.9,0,0,0,2.23,4.26,10.82,10.82,0,0,0,3.38,2.88,8.86,8.86,0,0,0,4.29,1.07,7.94,7.94,0,0,0,4.07-1.05,9.43,9.43,0,0,0,3-2.84,13.64,13.64,0,0,0,1.89-4.21,19.6,19.6,0,0,0,.66-5.18Z" transform="translate(-213.2)"/><path id="l-text" class="cls-3" d="M388.88,284.3v53.82h28.87v9.19H378.41v-63Z" transform="translate(-213.2)"/><g id="b-mountain"><g class="cls-4"><polygon class="cls-3" points="53.66 321.98 60.74 314.4 61.06 338.21 53.98 345.79 53.66 321.98"/><path class="cls-3" d="M273.23,303l7.08-7.58-.3.33a23.27,23.27,0,0,0-4.51,7.87,31.34,31.34,0,0,0-1.56,10.74L266.86,322a31.34,31.34,0,0,1,1.56-10.74,23.27,23.27,0,0,1,4.51-7.87Z" transform="translate(-213.2)"/><polygon class="cls-5" points="95.92 314.11 103 306.53 104.48 306.5 97.4 314.08 95.92 314.11"/><polygon class="cls-5" points="97.4 314.08 104.48 306.5 105.97 306.47 98.89 314.05 97.4 314.08"/><path class="cls-5" d="M307,292.68c3.7,2.19,9,8.52,9.23,13.85-2.36,2.52-4.73,5.05-7.08,7.58-.24-5.33-5.53-11.66-9.23-13.85a23.8,23.8,0,0,0-12.14-3.39,19.7,19.7,0,0,0-8.13,1.64,19.18,19.18,0,0,0-6.39,4.53l7.08-7.58a19.18,19.18,0,0,1,6.39-4.53,19.7,19.7,0,0,1,8.13-1.64A23.8,23.8,0,0,1,307,292.68Z" transform="translate(-213.2)"/><path class="cls-3" d="M271,301l7.08-7.58a22.22,22.22,0,0,1,7.36-5.23,22.92,22.92,0,0,1,9.33-1.88,27,27,0,0,1,13.65,3.82,25.48,25.48,0,0,1,7.69,7.82l-7.08,7.58a25.48,25.48,0,0,0-7.69-7.82,27,27,0,0,0-13.65-3.82,22.92,22.92,0,0,0-9.33,1.88A22.22,22.22,0,0,0,271,301Z" transform="translate(-213.2)"/><polygon class="cls-3" points="53.98 345.79 61.06 338.21 154.92 339.01 147.84 346.59 53.98 345.79"/><path class="cls-3" d="M318.28,285.65l7.08-7.58a25.29,25.29,0,0,0-2.72,3.51c-1.59,2.47-4.17,9-3.48,24.74l-7.08,7.58c-.69-15.78,1.89-22.27,3.48-24.74A25.29,25.29,0,0,1,318.28,285.65Z" transform="translate(-213.2)"/><polygon class="cls-5" points="147.29 306.03 154.37 298.45 154.92 339.01 147.84 346.59 147.29 306.03"/><path class="cls-5" d="M318.28,285.65l7.08-7.58a20.15,20.15,0,0,1,2.54-2.3,19.15,19.15,0,0,1,6.34-3.16,26.35,26.35,0,0,1,7.22-.94l-7.08,7.58a26.35,26.35,0,0,0-7.22.94,19.15,19.15,0,0,0-6.34,3.16A20.15,20.15,0,0,0,318.28,285.65Z" transform="translate(-213.2)"/><polygon class="cls-3" points="150.26 306.06 157.34 298.48 157.92 341.99 150.84 349.57 150.26 306.06"/><path class="cls-5" d="M365.41,288.48a26.06,26.06,0,0,1,2.16,10q-3.12,3.35-6.25,6.7l-.83.88a26.06,26.06,0,0,0-2.16-10l1.71-1.82,5.37-5.76Z" transform="translate(-213.2)"/><path class="cls-5" d="M365.41,288.48l-7.08,7.58a29.09,29.09,0,0,0-5.67-8.6l7.08-7.58-7.08,7.58a27.73,27.73,0,0,0-8.29-6,23.81,23.81,0,0,0-10-2.25l7.08-7.58a23.81,23.81,0,0,1,10,2.25,27.61,27.61,0,0,1,8.29,6A29.09,29.09,0,0,1,365.41,288.48Z" transform="translate(-213.2)"/><path class="cls-5" d="M334.38,279.25a23.81,23.81,0,0,1,10,2.25,27.61,27.61,0,0,1,8.29,6,29.22,29.22,0,0,1,5.67,8.6,26.06,26.06,0,0,1,2.16,10l.55,40.56-93.86-.8L266.86,322a31.34,31.34,0,0,1,1.56-10.74,23.27,23.27,0,0,1,4.51-7.87,19.2,19.2,0,0,1,6.69-4.86,19.7,19.7,0,0,1,8.13-1.64,23.8,23.8,0,0,1,12.14,3.39c3.7,2.19,9,8.52,9.23,13.85l1.48,0,1.49,0c-.7-15.93,1.88-22.42,3.47-24.89a22.72,22.72,0,0,1,5.26-5.81,19.15,19.15,0,0,1,6.34-3.16A26.35,26.35,0,0,1,334.38,279.25Z" transform="translate(-213.2)"/><path class="cls-3" d="M361.05,294.94l7.08-7.58a28.73,28.73,0,0,1,2.41,11.12l-7.08,7.58A28.73,28.73,0,0,0,361.05,294.94Z" transform="translate(-213.2)"/><path class="cls-3" d="M316.09,283.6l7.08-7.58a22.9,22.9,0,0,1,2.9-2.63,22,22,0,0,1,7.31-3.63,28.86,28.86,0,0,1,8-1.05,26.74,26.74,0,0,1,11.25,2.53,30.41,30.41,0,0,1,9.2,6.63,32,32,0,0,1,6.26,9.49l-7.08,7.58a32,32,0,0,0-6.26-9.49,30.41,30.41,0,0,0-9.2-6.63,26.74,26.74,0,0,0-11.25-2.53,28.86,28.86,0,0,0-8,1A22,22,0,0,0,319,281,22.9,22.9,0,0,0,316.09,283.6Z" transform="translate(-213.2)"/><path class="cls-3" d="M361.05,294.94a28.73,28.73,0,0,1,2.41,11.12l.58,43.51-99.79-.84L263.89,322a34.16,34.16,0,0,1,1.72-11.74,26.21,26.21,0,0,1,5.09-8.85,22.29,22.29,0,0,1,7.68-5.58,22.92,22.92,0,0,1,9.33-1.88,27,27,0,0,1,13.65,3.82,25.48,25.48,0,0,1,7.69,7.82c.29-8.21,1.64-14.36,4-18A25.45,25.45,0,0,1,319,281a22,22,0,0,1,7.31-3.63,28.86,28.86,0,0,1,8-1,26.74,26.74,0,0,1,11.25,2.53,30.41,30.41,0,0,1,9.2,6.63A32,32,0,0,1,361.05,294.94Zm0,51.65L360.49,306a26.06,26.06,0,0,0-2.16-10,29.22,29.22,0,0,0-5.67-8.6,27.61,27.61,0,0,0-8.29-6,23.81,23.81,0,0,0-10-2.25,26.35,26.35,0,0,0-7.22.94,19.15,19.15,0,0,0-6.34,3.16,22.72,22.72,0,0,0-5.26,5.81c-1.59,2.47-4.17,9-3.48,24.74l-1.48.18-1.48,0c-.24-5.34-5.53-11.67-9.23-13.86a23.8,23.8,0,0,0-12.14-3.39,19.7,19.7,0,0,0-8.13,1.64,19.2,19.2,0,0,0-6.69,4.86,23.27,23.27,0,0,0-4.51,7.87A31.34,31.34,0,0,0,266.86,322l.32,23.81,93.86.8" transform="translate(-213.2)"/></g><path class="cls-6" d="M294.5,341.8V324.45a16.16,16.16,0,0,0-.92-5.55,13.87,13.87,0,0,0-2.5-4.34,11.18,11.18,0,0,0-3.68-2.82,10.3,10.3,0,0,0-4.48-1,11,11,0,0,0-4.07.74,8.6,8.6,0,0,0-3.24,2.26,10.77,10.77,0,0,0-2.14,3.86,18.26,18.26,0,0,0-.77,5.62V341.8Z" transform="translate(-213.2)"/><path class="cls-7" d="M345.52,341.8V325.4c0-2.11-.3-8.4-.92-10.56a19,19,0,0,0-2.75-5.85,14.31,14.31,0,0,0-4.68-4.23,13.55,13.55,0,0,0-6.8-1.62,13.37,13.37,0,0,0-6.1,1.45c-1.9,1-1.5.28-3,2.11a21.09,21.09,0,0,0-3.46,6.7,29.12,29.12,0,0,0-1.26,8.88V341.8Z" transform="translate(-213.2)"/></g><g id="flag"><rect class="cls-2" x="67.94" y="204.6" width="4.15" height="82.98"/><polyline class="cls-2" points="74.16 239.87 74.16 204.6 111.51 223.27"/></g><g id="o-man"><g id="body"><path id="feet_right" class="cls-8" d="M416.06,332.08c0,2.83-1.11,5.13-2.48,5.13s-2.47-2.3-2.47-5.13,1.1-5.13,2.47-5.13S416.06,329.25,416.06,332.08Z" transform="translate(-213.2)"/><path id="feet_left" class="cls-8" d="M427.19,332.08c0,2.83-1.1,5.13-2.47,5.13s-2.47-2.3-2.47-5.13,1.1-5.13,2.47-5.13S427.19,329.25,427.19,332.08Z" transform="translate(-213.2)"/><path id="hand_right" class="cls-8" d="M396.37,297.6c2.32,1.54,3.59,3.74,2.85,4.92s-3.22.88-5.54-.66-3.6-3.74-2.85-4.92S394.05,296.06,396.37,297.6Z" transform="translate(-213.2)"/><path id="hand_left" class="cls-8" d="M439.06,309c2.32,1.54,3.59,3.74,2.85,4.91s-3.22.89-5.54-.65-3.6-3.74-2.85-4.92S436.74,307.48,439.06,309Z" transform="translate(-213.2)"/><path class="cls-9" d="M401.05,304a29.83,29.83,0,0,1,1.2-8.57,21.27,21.27,0,0,1,3.53-7,17.91,17.91,0,0,1,21.51-4.73,17.47,17.47,0,0,1,5.82,4.73,20.83,20.83,0,0,1,3.6,7,30.71,30.71,0,0,1,0,17.14,20.46,20.46,0,0,1-3.6,7,18.17,18.17,0,0,1-21.57,4.69,16.84,16.84,0,0,1-5.76-4.69,20.88,20.88,0,0,1-3.53-7A29.73,29.73,0,0,1,401.05,304Zm8.88-.69a15.27,15.27,0,0,0,.63,4.44,11.06,11.06,0,0,0,1.82,3.63,9,9,0,0,0,2.89,2.46,8.56,8.56,0,0,0,7.64,0,9,9,0,0,0,2.9-2.46,11.29,11.29,0,0,0,1.84-3.63,15.56,15.56,0,0,0,0-8.9,11.6,11.6,0,0,0-1.84-3.67,8.91,8.91,0,0,0-2.9-2.47,8.56,8.56,0,0,0-7.64,0,8.88,8.88,0,0,0-2.89,2.47,11.36,11.36,0,0,0-1.82,3.67A15.41,15.41,0,0,0,409.93,303.27Z" transform="translate(-213.2)"/></g><g id="hat"><polygon class="cls-8" points="214.51 291.25 199.92 285.94 205.1 270.98 219.69 276.3 214.51 291.25"/><polygon class="cls-8" points="199.88 285.93 194.45 283.95 196.4 278.34 201.83 280.32 199.88 285.93"/></g></g></g></g><path class="cls-10" d="M333.72,212.15h15.74c9.55,0,17,2.62,17,11.4,0,4.13-2.3,8.52-6.06,9.93v.29c4.7,1.22,8.33,4.68,8.33,10.82,0,9.36-7.91,13.55-17.92,13.55h-17ZM349,230.57c5,0,7.28-2.13,7.28-5.48,0-3.54-2.36-4.92-7.21-4.92h-4.93v10.4Zm.95,19.55c5.66,0,8.59-2,8.59-6.2,0-4-2.88-5.68-8.59-5.68h-5.81v11.88Z" transform="translate(-213.2)"/><path class="cls-10" d="M375.55,247.26V208.7h10.38v39c0,2.22,1,2.93,1.87,2.93a4.56,4.56,0,0,0,1.27-.14l1.24,7.65a13.45,13.45,0,0,1-5.21.86C378,259,375.55,254.35,375.55,247.26Z" transform="translate(-213.2)"/><path class="cls-10" d="M393.7,240.65c0-11.64,8.2-18.37,17.06-18.37s17.05,6.73,17.05,18.37S419.62,259,410.76,259,393.7,252.27,393.7,240.65Zm23.48,0c0-6.06-2.13-10-6.42-10s-6.43,3.93-6.43,10,2.14,10,6.43,10S417.18,246.71,417.18,240.65Z" transform="translate(-213.2)"/><path class="cls-10" d="M432.76,264.16c0-2.91,1.74-5.26,5-7.05v-.29a6.78,6.78,0,0,1-3.2-5.94c0-2.52,1.68-5,3.91-6.56V244a11.19,11.19,0,0,1-4.7-9.09c0-8.4,6.94-12.67,14.48-12.67a17,17,0,0,1,5.42.85h12.81v7.56h-5.63A9.22,9.22,0,0,1,462,235.3c0,8.06-6.13,11.77-13.78,11.77a15.28,15.28,0,0,1-4.28-.68,3,3,0,0,0-1.22,2.6c0,1.73,1.42,2.57,5.24,2.57h5.68c8.59,0,13.37,2.63,13.37,8.9,0,7.27-7.58,12.57-19.6,12.57C439.26,273,432.76,270.38,432.76,264.16Zm24.31-1.93c0-2.21-1.9-2.71-5.34-2.71h-3.64a18.84,18.84,0,0,1-4.9-.45,4.4,4.4,0,0,0-1.9,3.43c0,2.66,3.08,4,7.77,4S457.07,264.65,457.07,262.23ZM453,235c0-3.73-2-5.69-4.78-5.69s-4.78,2-4.78,5.69,2.05,5.84,4.78,5.84S453,238.79,453,235Z" transform="translate(-213.2)"/></g></svg>