<svg xmlns="http://www.w3.org/2000/svg" viewBox="0 0 45.06 56.5"><defs><style>.cls-1{fill:#efb9a9;}.cls-2{fill:#eae0cb;stroke:#efb9a9;stroke-miterlimit:10;}.cls-3{fill:#f19655;}</style></defs><g id="Layer_10" data-name="Layer 10"><g id="O_man01"><path id="feet_right" class="cls-1" d="M24.82,51.69c0,1.42-.57,2.58-1.28,2.58s-1.28-1.16-1.28-2.58.58-2.59,1.28-2.59S24.82,50.26,24.82,51.69Z"/><path id="feet_left" class="cls-1" d="M30.58,51.69c0,1.42-.58,2.58-1.28,2.58S28,53.11,28,51.69s.57-2.59,1.28-2.59S30.58,50.26,30.58,51.69Z"/><path id="hand_right" class="cls-1" d="M14,25.69c.77,1.2.92,2.48.32,2.86s-1.7-.28-2.47-1.47-.92-2.48-.33-2.87S13.25,24.49,14,25.69Z"/><path id="hand_left" class="cls-1" d="M36.71,40.06c1.2.78,1.85,1.89,1.47,2.48s-1.66.45-2.86-.33-1.86-1.88-1.48-2.48S35.51,39.29,36.71,40.06Z"/><path class="cls-2" d="M17.07,37.51a14.56,14.56,0,0,1,.62-4.32,10.55,10.55,0,0,1,1.82-3.53,8.8,8.8,0,0,1,3-2.39,9.08,9.08,0,0,1,4.06-.88,9.13,9.13,0,0,1,4.07.88,8.91,8.91,0,0,1,3,2.39,10.65,10.65,0,0,1,1.87,3.53,15.16,15.16,0,0,1,0,8.65,10.5,10.5,0,0,1-1.87,3.52,8.86,8.86,0,0,1-3,2.37,9.26,9.26,0,0,1-4.07.86,9.21,9.21,0,0,1-4.06-.86,8.75,8.75,0,0,1-3-2.37,10.41,10.41,0,0,1-1.82-3.52A14.48,14.48,0,0,1,17.07,37.51Zm4.59-.35A7.4,7.4,0,0,0,22,39.4a5.66,5.66,0,0,0,.94,1.83,4.54,4.54,0,0,0,1.49,1.24,4.47,4.47,0,0,0,3.95,0,4.38,4.38,0,0,0,1.5-1.24,5.68,5.68,0,0,0,.95-1.83,7.55,7.55,0,0,0,0-4.48,5.78,5.78,0,0,0-.95-1.85,4.52,4.52,0,0,0-1.5-1.25,4.56,4.56,0,0,0-3.95,0,4.7,4.7,0,0,0-1.49,1.25A5.76,5.76,0,0,0,22,34.92,7.44,7.44,0,0,0,21.66,37.16Z"/><rect class="cls-1" x="24.41" y="22" width="8" height="8" transform="translate(-5.6 44.07) rotate(-70.44)"/><rect class="cls-1" x="21.37" y="24.68" width="3" height="4" transform="translate(-9.94 39.29) rotate(-70.43)"/></g><rect class="cls-3" x="-1.32" y="16.39" width="40" height="2" transform="translate(-6.81 18.69) rotate(-45.87)"/><polyline class="cls-3" points="22.2 16.63 34.04 4.42 40.7 23.41"/></g></svg>