<svg width="1000" height="100" viewBox="0 0 1000 100" fill="none" xmlns="http://www.w3.org/2000/svg">
<path opacity="0.33" d="M527 32.7C730.9 -55.6 790.1 66.7 847.3 32.7C934 -19.1 1000 40.3 1000 40.3V100L0 100V40.3C0 40.3 62.1 14.2 94.9 11C127.7 7.7 157.7 23.3 170.7 33.1C194 50.4 254.7 91.3 305.1 95.3C355.5 99.3 507.6 41 527 32.7Z" fill="#B9EBF5"/>
<path opacity="0.66" d="M266 32.7C311.5 32.7 343.2 55.9 395.1 71.8C423.7 80.5 545.4 81.9 649.1 32.7C752.8 -16.5 740.8 67.1 798.3 32.7C884.3 -18.3 1000 60.2 1000 60.2V100L0 100V63.5C0 63.5 28.2 82 92.1 82C189.8 81.9 224.3 32.7 266 32.7Z" fill="#B9EBF5"/>
<path d="M233.9 71.1C433.9 128.6 499.9 5.59999 629 51.6C758 98.2 758 94.6 815.2 79.4C872 64.2 867.7 55.1 910.1 47.5C971.4 36.3 1000 100 1000 100L0 100C0 100 9.89998 59.1 83.6 51.9C157.3 44.7 170.4 53 233.9 71.1Z" fill="#B9EBF5"/>
</svg>
