<?xml version="1.0" encoding="utf-8"?>
<!-- Generator: Adobe Illustrator 25.2.1, SVG Export Plug-In . SVG Version: 6.00 Build 0)  -->
<svg version="1.1" xmlns="http://www.w3.org/2000/svg" xmlns:xlink="http://www.w3.org/1999/xlink" x="0px" y="0px"
	 viewBox="0 0 1265 2600" style="enable-background:new 0 0 1265 2600;" xml:space="preserve">
<style type="text/css">
	.st0{fill:#E3F7FB;}
</style>
<g id="圖層_2">
	
		<image style="overflow:visible;opacity:0.4;" width="4617" height="3356" xlink:href="pexels-zaksheuskaya-4457896.jpg"  transform="matrix(9.724891e-02 0 0 9.724891e-02 0 809)">
	</image>
	
		<image style="overflow:visible;opacity:0.4;" width="4617" height="3356" xlink:href="pexels-zaksheuskaya-4457896.jpg"  transform="matrix(0.198 0 0 0.198 -1137 1325)">
	</image>
	
		<image style="overflow:visible;opacity:0.31;" width="4617" height="3356" xlink:href="pexels-zaksheuskaya-4457896.jpg"  transform="matrix(9.724891e-02 0 0 9.724891e-02 449 809)">
	</image>
	
		<image style="overflow:visible;opacity:0.27;" width="8192" height="6161" xlink:href="pexels-zaksheuskaya-1568607.jpg"  transform="matrix(9.460449e-02 0 0 9.460449e-02 0 1325)">
	</image>
	
		<image style="overflow:visible;opacity:0.27;" width="8192" height="6161" xlink:href="pexels-zaksheuskaya-1568607.jpg"  transform="matrix(9.460449e-02 0 0 9.460449e-02 328 1122)">
	</image>
	
		<image style="overflow:visible;opacity:0.27;" width="8192" height="6161" xlink:href="pexels-zaksheuskaya-1568607.jpg"  transform="matrix(9.460449e-02 0 0 9.460449e-02 744 717)">
	</image>
	
		<image style="overflow:visible;opacity:0.31;" width="4617" height="3356" xlink:href="pexels-zaksheuskaya-4457896.jpg"  transform="matrix(9.724891e-02 0 0 9.724891e-02 0 1099)">
	</image>
	
		<image style="overflow:visible;opacity:0.31;" width="4617" height="3356" xlink:href="pexels-zaksheuskaya-4457896.jpg"  transform="matrix(9.724891e-02 0 0 9.724891e-02 1005 1300)">
	</image>
	
		<image style="overflow:visible;opacity:0.31;" width="4617" height="3356" xlink:href="pexels-zaksheuskaya-4457896.jpg"  transform="matrix(9.724891e-02 0 0 9.724891e-02 -86 1683)">
	</image>
	
		<image style="overflow:visible;opacity:0.4;" width="4617" height="3356" xlink:href="pexels-zaksheuskaya-4457896.jpg"  transform="matrix(9.724891e-02 0 0 9.724891e-02 -104 -18)">
	</image>
	
		<image style="overflow:visible;opacity:0.4;" width="4617" height="3356" xlink:href="pexels-zaksheuskaya-4457896.jpg"  transform="matrix(0.198 0 0 0.198 -1241 498)">
	</image>
	
		<image style="overflow:visible;opacity:0.31;" width="4617" height="3356" xlink:href="pexels-zaksheuskaya-4457896.jpg"  transform="matrix(9.724891e-02 0 0 9.724891e-02 345 -18)">
	</image>
	
		<image style="overflow:visible;opacity:0.27;" width="8192" height="6161" xlink:href="pexels-zaksheuskaya-1568607.jpg"  transform="matrix(9.460449e-02 0 0 9.460449e-02 -104 498)">
	</image>
	
		<image style="overflow:visible;opacity:0.27;" width="8192" height="6161" xlink:href="pexels-zaksheuskaya-1568607.jpg"  transform="matrix(9.460449e-02 0 0 9.460449e-02 224 295)">
	</image>
	
		<image style="overflow:visible;opacity:0.27;" width="8192" height="6161" xlink:href="pexels-zaksheuskaya-1568607.jpg"  transform="matrix(9.460449e-02 0 0 9.460449e-02 640 -110)">
	</image>
	
		<image style="overflow:visible;opacity:0.31;" width="4617" height="3356" xlink:href="pexels-zaksheuskaya-4457896.jpg"  transform="matrix(9.724891e-02 0 0 9.724891e-02 -104 272)">
	</image>
	
		<image style="overflow:visible;opacity:0.31;" width="4617" height="3356" xlink:href="pexels-zaksheuskaya-4457896.jpg"  transform="matrix(9.724891e-02 0 0 9.724891e-02 901 473)">
	</image>
	
		<image style="overflow:visible;opacity:0.31;" width="4617" height="3356" xlink:href="pexels-zaksheuskaya-4457896.jpg"  transform="matrix(9.724891e-02 0 0 9.724891e-02 -190 856)">
	</image>
	
		<image style="overflow:visible;opacity:0.4;" width="4617" height="3356" xlink:href="pexels-zaksheuskaya-4457896.jpg"  transform="matrix(9.724891e-02 0 0 9.724891e-02 771 1644)">
	</image>
	
		<image style="overflow:visible;opacity:0.31;" width="4617" height="3356" xlink:href="pexels-zaksheuskaya-4457896.jpg"  transform="matrix(9.724891e-02 0 0 9.724891e-02 1900 1354)">
	</image>
	
		<image style="overflow:visible;opacity:0.27;" width="8192" height="6161" xlink:href="pexels-zaksheuskaya-1568607.jpg"  transform="matrix(9.460449e-02 0 0 9.460449e-02 475 1908)">
	</image>
	
		<image style="overflow:visible;opacity:0.27;" width="8192" height="6161" xlink:href="pexels-zaksheuskaya-1568607.jpg"  transform="matrix(9.460449e-02 0 0 9.460449e-02 -25 2008)">
	</image>
	
		<image style="overflow:visible;opacity:0.27;" width="8192" height="6161" xlink:href="pexels-zaksheuskaya-1568607.jpg"  transform="matrix(9.460449e-02 0 0 9.460449e-02 2195 1262)">
	</image>
	
		<image style="overflow:visible;opacity:0.31;" width="4617" height="3356" xlink:href="pexels-zaksheuskaya-4457896.jpg"  transform="matrix(9.724891e-02 0 0 9.724891e-02 1451 1644)">
	</image>
	
		<image style="overflow:visible;opacity:0.31;" width="4617" height="3356" xlink:href="pexels-zaksheuskaya-4457896.jpg"  transform="matrix(9.724891e-02 0 0 9.724891e-02 2456 1845)">
	</image>
	
		<image style="overflow:visible;opacity:0.31;" width="4617" height="3356" xlink:href="pexels-zaksheuskaya-4457896.jpg"  transform="matrix(9.724891e-02 0 0 9.724891e-02 816 2274)">
	</image>
</g>
<g id="圖層_1">
	<g>
		<image style="overflow:visible;" width="393" height="293" xlink:href="853ED55B.png"  transform="matrix(1 0 0 1 47 914)">
		</image>
	</g>
	<rect x="77.1" y="948.4" class="st0" width="320" height="220"/>
	
		<image style="overflow:visible;" width="2769" height="1846" xlink:href="853ED55D.jpg"  transform="matrix(0.1084 0 0 0.1084 87.0378 958.3578)">
	</image>
</g>
</svg>
