<?xml version="1.0" encoding="utf-8"?>
<!-- Generator: Adobe Illustrator 25.2.1, SVG Export Plug-In . SVG Version: 6.00 Build 0)  -->
<svg version="1.1" xmlns="http://www.w3.org/2000/svg" xmlns:xlink="http://www.w3.org/1999/xlink" x="0px" y="0px"
	 viewBox="0 0 1280 570" style="enable-background:new 0 0 1280 570;" xml:space="preserve">
<style type="text/css">
	.st0{display:none;fill:#999999;}
	.st1{fill:#F19655;}
	.st2{fill:#91ADA5;}
	.st3{enable-background:new    ;}
	.st4{fill:#BDDBD1;}
	.st5{fill:#91ADA5;stroke:#91ADA5;stroke-width:3;stroke-miterlimit:10;}
	.st6{opacity:0.36;fill:#91ADA5;stroke:#91ADA5;stroke-width:3;stroke-miterlimit:10;}
	.st7{fill:#EFB9A9;}
	.st8{fill:#EAE0CB;stroke:#EFB9A9;stroke-miterlimit:10;}
	.st9{fill:#B9EBF5;stroke:#FFFFFF;stroke-width:2;stroke-miterlimit:10;}
	.st10{fill:none;}
</style>
<g id="圖層_10">
	<g id="logo_3_">
		<rect id="logoPackage_3_" x="217.4" y="222.6" class="st0" width="251.5" height="207.1"/>
		<g id="logo-body_3_">
			<path id="r-text_3_" class="st1" d="M244.7,210.9h4.2v5.1c1.4-1.8,2.7-3.2,4.1-4.2c1.4-1,2.9-1.5,4.7-1.5c0.3,0,0.6,0,1,0.1
				c0.4,0,0.7,0.1,0.9,0.2v4.9c-0.7-0.2-1.3-0.4-2.1-0.4c-1.4,0-2.6,0.2-3.6,0.7c-1.1,0.5-2,1.1-2.7,2c-0.7,0.8-1.3,1.8-1.7,2.9
				c-0.4,1.1-0.6,2.2-0.6,3.4v9.7h-4.2V210.9z"/>
			<path id="i-text_3_" class="st1" d="M271,203.8v5.7h-4.1v-5.7H271z M271,212.9v20.9h-4.1v-20.9H271z"/>
			<polygon id="t-text_3_" class="st1" points="241.1,199.9 241.1,204.8 230.8,204.8 230.8,233.3 226.3,233.3 226.3,204.8 
				215.9,204.8 215.9,199.9 			"/>
			<path id="g-text_3_" class="st2" d="M463.8,348.3c0,2.4-0.4,30.5-1.2,32.3c-0.8,1.8-1.8,3.3-3.1,4.5c-1.3,1.2-2.8,2.1-4.5,2.7
				c-1.7,0.6-3.5,0.9-5.3,0.9c-1.5,0-3-0.2-4.4-0.6c-1.4-0.4-2.7-1-3.8-1.9c-1.2-0.8-2.2-1.9-3.1-3.3c-0.9-1.3-1.7-2.9-2.3-4.7h4.4
				c0.9,2.1,2.2,3.6,3.7,4.5c1.5,0.9,3.3,1.4,5.5,1.4c1.3,0,2.6-0.2,3.7-0.7c1.2-0.5,2.2-1.1,3.1-2c0.9-0.9,1.6-1.9,2.1-3
				c0.5-1.2,0.8-28.5,0.8-29.9v-6c-0.7,1.1-1.5,2-2.4,2.8c-0.8,0.7-1.7,1.3-2.5,1.7c-0.9,0.4-1.7,0.7-2.6,0.9
				c-0.9,0.2-1.7,0.3-2.4,0.3c-2.3,0-4.3-0.5-6.1-1.4c-1.8-0.9-3.3-2.2-4.6-3.9c-1.3-1.6-2.3-3.5-2.9-5.7c-0.7-2.2-1-4.5-1-7
				c0-2.5,0.3-4.8,1-6.9c0.7-2.2,1.6-4,2.9-5.6c1.2-1.6,2.7-2.8,4.5-3.8c1.8-0.9,3.7-1.4,5.9-1.4c0.7,0,1.5,0,2.3,0.1
				c0.8,0.1,1.7,0.3,2.6,0.7c0.9,0.4,1.8,0.9,2.7,1.6c0.9,0.7,1.8,1.8,2.8,3.1v-4.9h4.4V348.3z M459.4,329.8c0-1.8-0.3-3.4-0.7-5
				c-0.5-1.6-1.1-2.9-1.9-4.1c-0.8-1.2-1.8-2.1-3-2.7c-1.2-0.7-2.5-1-4-1c-1.5,0-3,0.3-4.3,1c-1.3,0.7-2.4,1.6-3.4,2.8
				c-0.9,1.2-1.7,2.6-2.2,4.2c-0.5,1.6-0.8,3.3-0.8,5.2c0,1.8,0.3,3.6,0.8,5.2c0.5,1.6,1.3,3.1,2.2,4.3c1,1.2,2.1,2.2,3.4,2.9
				c1.3,0.7,2.7,1.1,4.3,1.1c1.5,0,2.9-0.3,4.1-1c1.2-0.7,2.2-1.6,3-2.8c0.8-1.2,1.5-2.6,1.9-4.2c0.4-1.6,0.7-3.3,0.7-5.2V329.8z"/>
			<path id="l-text_3_" class="st2" d="M388.9,284.3v53.8h28.9v9.2h-39.3v-63H388.9z"/>
			<g id="b-mountain_3_">
				<g>
					<g>
						<g class="st3">
							<g>
								<polygon class="st2" points="266.9,322 273.9,314.4 274.3,338.2 267.2,345.8 								"/>
							</g>
							<g>
								<path class="st2" d="M273.2,303l7.1-7.6c-0.1,0.1-0.2,0.2-0.3,0.3c-1.9,2.1-3.4,4.8-4.5,7.9c-1.1,3.1-1.6,6.7-1.6,10.7
									l-7.1,7.6c-0.1-4,0.5-7.6,1.6-10.7c1.1-3.1,2.6-5.7,4.5-7.9C273,303.3,273.1,303.1,273.2,303z"/>
							</g>
							<g>
								<polygon class="st4" points="309.1,314.1 316.2,306.5 317.7,306.5 310.6,314.1 								"/>
							</g>
							<g>
								<polygon class="st4" points="310.6,314.1 317.7,306.5 319.2,306.5 312.1,314.1 								"/>
							</g>
							<g>
								<path class="st4" d="M307,292.7c3.7,2.2,9,8.5,9.2,13.8c-2.4,2.5-4.7,5.1-7.1,7.6c-0.2-5.3-5.5-11.7-9.2-13.8
									c-3.7-2.2-7.8-3.4-12.1-3.4c-2.9,0-5.6,0.5-8.1,1.6c-2.4,1.1-4.6,2.6-6.4,4.5l7.1-7.6c1.8-2,4-3.5,6.4-4.5
									c2.6-1.1,5.3-1.7,8.1-1.6C299.1,289.3,303.2,290.5,307,292.7z"/>
							</g>
							<g>
								<path class="st2" d="M271,301l7.1-7.6c2.1-2.3,4.6-4,7.4-5.2c2.9-1.3,6.1-1.9,9.3-1.9c4.9,0,9.5,1.3,13.7,3.8
									c2.5,1.4,5.5,4.4,7.7,7.8l-7.1,7.6c-2.2-3.5-5.2-6.4-7.7-7.8c-4.2-2.5-8.8-3.8-13.7-3.8c-3.3,0-6.4,0.6-9.3,1.9
									C275.6,297,273.1,298.8,271,301z"/>
							</g>
							<g>
								<polygon class="st2" points="267.2,345.8 274.3,338.2 368.1,339 361,346.6 								"/>
							</g>
							<g>
								<path class="st2" d="M318.3,285.6l7.1-7.6c-1,1-1.9,2.2-2.7,3.5c-1.6,2.5-4.2,9-3.5,24.7l-7.1,7.6
									c-0.7-15.8,1.9-22.3,3.5-24.7C316.4,287.9,317.3,286.7,318.3,285.6z"/>
							</g>
							<g>
								<polygon class="st4" points="360.5,306 367.6,298.5 368.1,339 361,346.6 								"/>
							</g>
							<g>
								<path class="st4" d="M318.3,285.7l7.1-7.6c0.8-0.9,1.7-1.6,2.5-2.3c1.9-1.5,4.1-2.5,6.3-3.2c2.3-0.6,4.8-1,7.2-0.9l-7.1,7.6
									c-2.5,0-4.9,0.3-7.2,0.9c-2.3,0.6-4.4,1.7-6.3,3.2C319.9,284,319.1,284.8,318.3,285.7z"/>
							</g>
							<g>
								<polygon class="st2" points="363.5,306.1 370.5,298.5 371.1,342 364,349.6 								"/>
							</g>
							<g>
								<path class="st4" d="M365.4,288.5c1.4,3.2,2.1,6.6,2.2,10c-2.1,2.2-4.2,4.5-6.3,6.7l-0.8,0.9c0-3.4-0.8-6.8-2.2-10
									c0.6-0.6,1.1-1.2,1.7-1.8C361.8,292.3,363.6,290.4,365.4,288.5C365.4,288.5,365.4,288.5,365.4,288.5z"/>
							</g>
							<g>
								<path class="st4" d="M365.4,288.5c-2.4,2.5-4.7,5.1-7.1,7.6c-1.4-3.2-3.3-6.1-5.7-8.6c2.4-2.5,4.7-5.1,7.1-7.6
									c-2.4,2.5-4.7,5.1-7.1,7.6c-2.4-2.5-5.2-4.5-8.3-6c-3.1-1.5-6.5-2.2-10-2.2l7.1-7.6c3.5,0,6.9,0.8,10,2.2
									c3.1,1.5,5.9,3.5,8.3,6C362.1,282.4,364,285.3,365.4,288.5z"/>
							</g>
							<g>
								<path class="st4" d="M334.4,279.3c3.5,0,6.9,0.8,10,2.2c3.1,1.5,5.9,3.5,8.3,6c2.4,2.5,4.3,5.4,5.7,8.6
									c1.4,3.2,2.1,6.6,2.2,10l0.5,40.6l-93.9-0.8l-0.3-23.8c-0.1-4,0.5-7.6,1.6-10.7c1.1-3.1,2.6-5.7,4.5-7.9
									c1.9-2.1,4.1-3.8,6.7-4.9c2.6-1.1,5.3-1.7,8.1-1.6c4.3,0,8.4,1.2,12.1,3.4c3.7,2.2,9,8.5,9.2,13.8l1.5,0l1.5,0
									c-0.7-15.9,1.9-22.4,3.5-24.9c1.6-2.4,3.3-4.3,5.3-5.8c1.9-1.5,4.1-2.5,6.3-3.2C329.5,279.5,331.9,279.2,334.4,279.3z"/>
							</g>
							<g>
								<path class="st2" d="M361.1,294.9l7.1-7.6c1.5,3.6,2.4,7.3,2.4,11.1l-7.1,7.6C363.4,302.2,362.6,298.5,361.1,294.9z"/>
							</g>
							<g>
								<path class="st2" d="M316.1,283.6l7.1-7.6c0.9-1,1.9-1.9,2.9-2.6c2.2-1.7,4.7-2.9,7.3-3.6c2.6-0.7,5.3-1.1,8-1.1
									c4,0,7.7,0.9,11.2,2.5c3.5,1.6,6.6,3.9,9.2,6.6c2.6,2.8,4.7,6,6.3,9.5l-7.1,7.6c-1.5-3.5-3.6-6.7-6.3-9.5
									c-2.6-2.8-5.7-5-9.2-6.6c-3.5-1.6-7.3-2.5-11.2-2.5c-2.7,0-5.4,0.3-8,1.1c-2.6,0.7-5.1,2-7.3,3.6
									C318,281.7,317,282.6,316.1,283.6z"/>
							</g>
							<g>
								<path class="st2" d="M361.1,294.9c1.5,3.6,2.4,7.3,2.4,11.1l0.6,43.5l-99.8-0.8l-0.4-26.8c-0.1-4.4,0.5-8.3,1.7-11.7
									c1.2-3.4,2.9-6.4,5.1-8.8c2.2-2.4,4.8-4.3,7.7-5.6c2.9-1.3,6.1-1.9,9.3-1.9c4.9,0,9.5,1.3,13.7,3.8c2.5,1.4,5.5,4.4,7.7,7.8
									c0.3-8.2,1.6-14.4,4-18c1.7-2.7,3.7-4.9,5.9-6.5c2.2-1.7,4.7-2.9,7.3-3.6c2.6-0.7,5.3-1.1,8-1.1c4,0,7.7,0.9,11.2,2.5
									c3.5,1.6,6.6,3.9,9.2,6.6C357.4,288.2,359.5,291.4,361.1,294.9z M361,346.6l-0.5-40.6c0-3.4-0.8-6.8-2.2-10
									c-1.4-3.2-3.3-6.1-5.7-8.6c-2.4-2.5-5.2-4.5-8.3-6c-3.1-1.5-6.5-2.2-10-2.2c-2.5,0-4.9,0.3-7.2,0.9
									c-2.3,0.6-4.4,1.7-6.3,3.2c-1.9,1.5-3.7,3.4-5.3,5.8c-1.6,2.5-4.2,9-3.5,24.7l-1.5,0.2l-1.5,0c-0.2-5.3-5.5-11.7-9.2-13.9
									c-3.7-2.2-7.8-3.4-12.1-3.4c-2.9,0-5.6,0.5-8.1,1.6c-2.5,1.1-4.8,2.7-6.7,4.9c-1.9,2.1-3.4,4.8-4.5,7.9
									c-1.1,3.1-1.6,6.7-1.6,10.7l0.3,23.8L361,346.6"/>
							</g>
						</g>
					</g>
				</g>
				<path class="st5" d="M294.5,341.8v-17.3c0-2-0.3-3.9-0.9-5.6c-0.6-1.7-1.4-3.1-2.5-4.3c-1-1.2-2.3-2.1-3.7-2.8
					c-1.4-0.7-2.9-1-4.5-1c-1.5,0-2.8,0.2-4.1,0.7c-1.2,0.5-2.3,1.2-3.2,2.3c-0.9,1-1.6,2.3-2.1,3.9c-0.5,1.6-0.8,3.4-0.8,5.6v18.6
					H294.5z"/>
				<path class="st6" d="M345.5,341.8v-16.4c0-2.1-0.3-8.4-0.9-10.6c-0.6-2.2-1.5-4.1-2.7-5.9c-1.2-1.7-2.8-3.1-4.7-4.2
					c-1.9-1.1-4.2-1.6-6.8-1.6c-2.2,0-4.2,0.5-6.1,1.4c-1.9,1-1.5,0.3-3,2.1c-1.5,1.8-2.6,4.1-3.5,6.7c-0.8,2.6-1.3,5.6-1.3,8.9
					v19.5H345.5z"/>
			</g>
			<g id="flag_3_">
				<rect x="281.1" y="204.6" class="st1" width="4.1" height="83"/>
				<polyline class="st1" points="287.4,239.9 287.4,204.6 324.7,223.3 				"/>
			</g>
			<g id="o-man_3_">
				<g id="body_3_">
					<path id="feet_x5F_right_3_" class="st7" d="M416.1,332.1c0,2.8-1.1,5.1-2.5,5.1c-1.4,0-2.5-2.3-2.5-5.1c0-2.8,1.1-5.1,2.5-5.1
						C414.9,327,416.1,329.3,416.1,332.1z"/>
					<path id="feet_x5F_left_3_" class="st7" d="M427.2,332.1c0,2.8-1.1,5.1-2.5,5.1c-1.4,0-2.5-2.3-2.5-5.1c0-2.8,1.1-5.1,2.5-5.1
						C426.1,327,427.2,329.3,427.2,332.1z"/>
					<path id="hand_x5F_right_3_" class="st7" d="M396.4,297.6c2.3,1.5,3.6,3.7,2.9,4.9c-0.7,1.2-3.2,0.9-5.5-0.7
						c-2.3-1.5-3.6-3.7-2.8-4.9C391.6,295.8,394,296.1,396.4,297.6z"/>
					<path id="hand_x5F_left_3_" class="st7" d="M439.1,309c2.3,1.5,3.6,3.7,2.9,4.9c-0.7,1.2-3.2,0.9-5.5-0.7
						c-2.3-1.5-3.6-3.7-2.8-4.9C434.3,307.2,436.7,307.5,439.1,309z"/>
					<path class="st8" d="M401.1,304c0-3,0.4-5.9,1.2-8.6c0.8-2.7,2-5,3.5-7c1.6-2,3.5-3.6,5.8-4.7c2.3-1.2,4.9-1.7,7.9-1.7
						c3,0,5.6,0.6,7.9,1.7c2.3,1.2,4.2,2.7,5.8,4.7c1.6,2,2.8,4.3,3.6,7c0.8,2.7,1.2,5.5,1.2,8.6c0,3-0.4,5.9-1.2,8.6
						c-0.8,2.7-2,5-3.6,7c-1.6,2-3.5,3.5-5.8,4.7c-2.3,1.1-4.9,1.7-7.9,1.7c-3,0-5.6-0.6-7.9-1.7c-2.3-1.1-4.2-2.7-5.8-4.7
						c-1.6-2-2.7-4.3-3.5-7C401.4,309.9,401.1,307,401.1,304z M409.9,303.3c0,1.6,0.2,3.1,0.6,4.4c0.4,1.4,1,2.6,1.8,3.6
						c0.8,1,1.8,1.9,2.9,2.5c1.1,0.6,2.4,0.9,3.8,0.9c1.4,0,2.7-0.3,3.8-0.9c1.1-0.6,2.1-1.4,2.9-2.5c0.8-1,1.4-2.2,1.8-3.6
						c0.4-1.4,0.6-2.9,0.6-4.4c0-1.6-0.2-3.1-0.6-4.5c-0.4-1.4-1-2.6-1.8-3.7c-0.8-1-1.8-1.9-2.9-2.5c-1.1-0.6-2.4-0.9-3.8-0.9
						c-1.4,0-2.7,0.3-3.8,0.9c-1.1,0.6-2.1,1.4-2.9,2.5c-0.8,1-1.4,2.3-1.8,3.7C410.1,300.2,409.9,301.7,409.9,303.3z"/>
				</g>
				<g id="hat_3_">
					<polygon class="st7" points="427.7,291.3 413.1,285.9 418.3,271 432.9,276.3 					"/>
					<polygon class="st7" points="413.1,285.9 407.7,283.9 409.6,278.3 415,280.3 					"/>
				</g>
			</g>
		</g>
	</g>
	<g>
		<path class="st9" d="M333.7,212.1h15.7c9.5,0,17,2.6,17,11.4c0,4.1-2.3,8.5-6.1,9.9v0.3c4.7,1.2,8.3,4.7,8.3,10.8
			c0,9.4-7.9,13.6-17.9,13.6h-17.1V212.1z M349,230.6c5,0,7.3-2.1,7.3-5.5c0-3.5-2.4-4.9-7.2-4.9h-4.9v10.4H349z M349.9,250.1
			c5.7,0,8.6-2,8.6-6.2c0-4-2.9-5.7-8.6-5.7h-5.8v11.9H349.9z"/>
		<path class="st9" d="M375.6,247.3v-38.6h10.4v39c0,2.2,1,2.9,1.9,2.9c0.4,0,0.7,0,1.3-0.1l1.2,7.6c-1.1,0.5-2.8,0.9-5.2,0.9
			C378,259,375.6,254.3,375.6,247.3z"/>
		<path class="st9" d="M393.7,240.6c0-11.6,8.2-18.4,17.1-18.4c8.9,0,17.1,6.7,17.1,18.4c0,11.6-8.2,18.3-17.1,18.3
			C401.9,259,393.7,252.3,393.7,240.6z M417.2,240.6c0-6.1-2.1-10-6.4-10c-4.3,0-6.4,3.9-6.4,10c0,6.1,2.1,10,6.4,10
			C415,250.6,417.2,246.7,417.2,240.6z"/>
		<path class="st9" d="M432.8,264.2c0-2.9,1.7-5.3,5-7v-0.3c-1.8-1.2-3.2-3.1-3.2-5.9c0-2.5,1.7-5,3.9-6.6V244
			c-2.5-1.7-4.7-5-4.7-9.1c0-8.4,6.9-12.7,14.5-12.7c2,0,3.9,0.3,5.4,0.8h12.8v7.6h-5.6c0.7,1,1.2,2.8,1.2,4.6
			c0,8.1-6.1,11.8-13.8,11.8c-1.3,0-2.7-0.2-4.3-0.7c-0.9,0.7-1.2,1.4-1.2,2.6c0,1.7,1.4,2.6,5.2,2.6h5.7c8.6,0,13.4,2.6,13.4,8.9
			c0,7.3-7.6,12.6-19.6,12.6C439.3,273,432.8,270.4,432.8,264.2z M457.1,262.2c0-2.2-1.9-2.7-5.3-2.7h-3.6c-2.4,0-3.8-0.1-4.9-0.4
			c-1.3,1.1-1.9,2.2-1.9,3.4c0,2.7,3.1,4,7.8,4C453.7,266.5,457.1,264.7,457.1,262.2z M453,235c0-3.7-2-5.7-4.8-5.7s-4.8,2-4.8,5.7
			c0,3.8,2,5.8,4.8,5.8S453,238.8,453,235z"/>
	</g>
</g>
<g id="圖層_7">
	<rect class="st10" width="1280" height="570"/>
</g>
</svg>
