<?xml version="1.0" encoding="utf-8"?>
<!-- Generator: Adobe Illustrator 25.2.1, SVG Export Plug-In . SVG Version: 6.00 Build 0)  -->
<svg version="1.1" xmlns="http://www.w3.org/2000/svg" xmlns:xlink="http://www.w3.org/1999/xlink" x="0px" y="0px"
	 viewBox="0 0 1280 570" style="enable-background:new 0 0 1280 570;" xml:space="preserve">
<style type="text/css">
	.st0{fill:#FFFFFF;stroke:#B9EBF5;stroke-miterlimit:10;}
	.st1{fill:#B9EBF5;}
	.st2{fill:none;}
</style>
<g id="圖層_10">
	<g id="圖層_13">
		<path class="st0" d="M318.1,286.1h-16c-2.4,0-4.5-2-4.5-4.5l0,0c0-2.4,2-4.5,4.5-4.5h16c2.4,0,4.5,2,4.5,4.5l0,0
			C322.6,284.1,320.6,286.1,318.1,286.1z"/>
		<path class="st1" d="M235.8,276.8h-53.4c-4.9,0-8.9-4-8.9-8.9v0c0-4.9,4-8.9,8.9-8.9h53.4c4.9,0,8.9,4,8.9,8.9v0
			C244.7,272.8,240.7,276.8,235.8,276.8z"/>
		<path class="st1" d="M517.2,296.4h-53.4c-4.9,0-8.9-4-8.9-8.9v0c0-4.9,4-8.9,8.9-8.9h53.4c4.9,0,8.9,4,8.9,8.9v0
			C526.1,292.4,522.1,296.4,517.2,296.4z"/>
		<path class="st0" d="M260.7,255.4h-11.6c-2.4,0-4.5-2-4.5-4.5l0,0c0-2.4,2-4.5,4.5-4.5h11.6c2.4,0,4.5,2,4.5,4.5l0,0
			C265.2,253.4,263.2,255.4,260.7,255.4z"/>
		<path class="st0" d="M305.7,250.5h-7.1c-2.4,0-4.5-2-4.5-4.5v0c0-2.4,2-4.5,4.5-4.5h7.1c2.4,0,4.5,2,4.5,4.5v0
			C310.1,248.5,308.1,250.5,305.7,250.5z"/>
		<path class="st0" d="M234,275.5h-43.6c-4.2,0-7.6-3.4-7.6-7.6v0c0-4.2,3.4-7.6,7.6-7.6H234c4.2,0,7.6,3.4,7.6,7.6v0
			C241.6,272.1,238.2,275.5,234,275.5z"/>
		<path class="st0" d="M511.8,295.1h-43.6c-4.2,0-7.6-3.4-7.6-7.6v0c0-4.2,3.4-7.6,7.6-7.6h43.6c4.2,0,7.6,3.4,7.6,7.6v0
			C519.4,291.6,516,295.1,511.8,295.1z"/>
	</g>
</g>
<g id="圖層_7">
	<rect class="st2" width="589" height="570"/>
	<g>
		<rect class="st2" width="1280" height="570"/>
	</g>
</g>
</svg>
