<svg width="60" height="60" viewBox="0 0 60 60" fill="none" xmlns="http://www.w3.org/2000/svg">
<path d="M30.0066 14.6168C21.4936 14.6168 14.6269 21.485 14.6269 30C14.6269 38.515 21.4936 45.3832 30.0066 45.3832C38.5198 45.3832 45.3866 38.515 45.3866 30C45.3866 21.485 38.5198 14.6168 30.0066 14.6168ZM30.0066 40.0012C24.5052 40.0012 20.0078 35.516 20.0078 30C20.0078 24.484 24.492 19.9989 30.0066 19.9989C35.5214 19.9989 40.0056 24.484 40.0056 30C40.0056 35.516 35.508 40.0012 30.0066 40.0012ZM49.603 13.9875C49.603 15.9824 47.9966 17.5756 46.0156 17.5756C44.0212 17.5756 42.4284 15.969 42.4284 13.9875C42.4284 12.006 44.0346 10.3994 46.0156 10.3994C47.9966 10.3994 49.603 12.006 49.603 13.9875ZM59.7892 17.6291C59.5616 12.8227 58.464 8.56522 54.9436 5.05746C51.4366 1.5497 47.1802 0.451858 42.3748 0.210866C37.4222 -0.0702888 22.5778 -0.0702888 17.6252 0.210866C12.8332 0.43847 8.57668 1.53632 5.05634 5.04408C1.53597 8.55182 0.451756 12.8093 0.21082 17.6158C-0.0702733 22.5694 -0.0702733 37.4172 0.21082 42.3708C0.438372 47.1772 1.53597 51.4348 5.05634 54.9426C8.57668 58.4502 12.8199 59.5482 17.6252 59.7892C22.5778 60.0702 37.4222 60.0702 42.3748 59.7892C47.1802 59.5616 51.4366 58.4636 54.9436 54.9426C58.4506 51.4348 59.5482 47.1772 59.7892 42.3708C60.0702 37.4172 60.0702 22.5828 59.7892 17.6291ZM53.391 47.686C52.347 50.3102 50.3258 52.3318 47.6888 53.3894C43.7402 54.956 34.3704 54.5944 30.0066 54.5944C25.643 54.5944 16.2599 54.9426 12.3246 53.3894C9.70106 52.3452 7.67986 50.3236 6.62242 47.686C5.05634 43.7364 5.41774 34.3646 5.41774 30C5.41774 25.6354 5.06972 16.2501 6.62242 12.314C7.66648 9.68984 9.68768 7.6682 12.3246 6.6105C16.2733 5.04406 25.643 5.40556 30.0066 5.40556C34.3704 5.40556 43.7534 5.05746 47.6888 6.6105C50.3124 7.6548 52.3336 9.67644 53.391 12.314C54.957 16.2635 54.5956 25.6354 54.5956 30C54.5956 34.3646 54.957 43.7498 53.391 47.686Z" fill="url(#paint0_linear)"/>
<defs>
<linearGradient id="paint0_linear" x1="30" y1="0" x2="30" y2="60" gradientUnits="userSpaceOnUse">
<stop stop-color="#EE34D0"/>
<stop offset="0.9375" stop-color="#F38648"/>
</linearGradient>
</defs>
</svg>
