<svg xmlns="http://www.w3.org/2000/svg" viewBox="0 0 402.85 382.2"><defs><style>.cls-1,.cls-3{fill:#fff;}.cls-2{fill:#b9ebf5;}.cls-3{font-size:22.85px;font-family:Arial-BoldMT, Arial;font-weight:700;}.cls-4{fill:none;stroke:#fff;}.cls-10,.cls-12,.cls-4,.cls-9{stroke-miterlimit:10;}.cls-5{fill:#f19655;}.cls-10,.cls-6,.cls-9{fill:#91ada5;}.cls-7{isolation:isolate;}.cls-8{fill:#bddbd1;}.cls-10,.cls-9{stroke:#91ada5;stroke-width:3px;}.cls-10{opacity:0.36;}.cls-11{fill:#efb9a9;}.cls-12{fill:#eae0cb;stroke:#efb9a9;}</style></defs><g id="圖層_2" data-name="圖層 2"><g id="圖層_2-2" data-name="圖層 2"><path id="logo-back-up" class="cls-1" d="M308.64,77H235.05a16.18,16.18,0,0,1-16.13-16.13h0a16.18,16.18,0,0,1,16.13-16.14h17.58A145.18,145.18,0,0,0,75.24,130.1H99a16.14,16.14,0,1,1,0,32.27H66.66a146.8,146.8,0,0,0-1.52,21A145,145,0,1,0,308.64,77Z"/><path id="logoBackground" class="cls-2" d="M355.2,186.5a145.06,145.06,0,0,1-290.11,0"/><g id="logo"><g id="text-circle"><text id="circle-t-triblog" class="cls-3" transform="matrix(0.42, 0.92, -0.91, 0.4, 359.32, 107.59)">T</text><text class="cls-3" transform="matrix(0.37, 0.94, -0.93, 0.35, 364.51, 119.12)">r</text><text class="cls-3" transform="matrix(0.33, 0.95, -0.94, 0.32, 367.72, 127.34)">i</text><text class="cls-3" transform="matrix(0.3, 0.96, -0.95, 0.28, 369.78, 133.27)"> </text><text class="cls-3" transform="matrix(0.24, 0.98, -0.97, 0.23, 371.78, 139.15)">B</text><text class="cls-3" transform="matrix(0.19, 0.99, -0.98, 0.17, 375.6, 155.11)">l</text><text class="cls-3" transform="matrix(0.13, 1, -0.99, 0.12, 376.85, 161.18)">o</text><text class="cls-3" transform="matrix(0.06, 1.01, -1, 0.05, 378.69, 174.87)">g</text><path id="circle-path" class="cls-4" d="M45.14,190.86a165,165,0,0,1,330,0"/></g><g id="logo-body"><path id="r-text" class="cls-5" d="M128.54,28.75h3.58v4.37a17.65,17.65,0,0,1,3.5-3.59,6.63,6.63,0,0,1,4-1.28,6.48,6.48,0,0,1,.84.05,2.6,2.6,0,0,1,.81.2v4.25a5,5,0,0,0-1.78-.32,7.43,7.43,0,0,0-3.12.63,6.89,6.89,0,0,0-2.31,1.68,7.59,7.59,0,0,0-1.43,2.45,8.34,8.34,0,0,0-.51,2.89v8.37h-3.58Z"/><path id="i-text" class="cls-5" d="M151.05,22.66v4.93h-3.56V22.66Zm0,7.87V48.45h-3.56V30.53Z"/><polygon id="t-text" class="cls-5" points="125.44 19.36 125.44 23.5 116.56 23.5 116.56 47.98 112.7 47.98 112.7 23.5 103.82 23.5 103.82 19.36 125.44 19.36"/><path id="g-text" class="cls-6" d="M316.47,146.64c0,2-.34,26.17-1,27.7a11.62,11.62,0,0,1-2.69,3.87,11.12,11.12,0,0,1-3.87,2.35,13.07,13.07,0,0,1-4.52.79,13.33,13.33,0,0,1-3.78-.53,10.64,10.64,0,0,1-3.27-1.62,11.64,11.64,0,0,1-2.66-2.79,16.66,16.66,0,0,1-2-4h3.79a8.55,8.55,0,0,0,3.15,3.86,9.43,9.43,0,0,0,8,.6,8.2,8.2,0,0,0,2.64-1.72,8.38,8.38,0,0,0,1.82-2.62c.45-1,.67-24.45.67-25.65v-5.14a11.9,11.9,0,0,1-2,2.38,9.9,9.9,0,0,1-2.17,1.47,8.82,8.82,0,0,1-2.21.77,10.61,10.61,0,0,1-2.1.23,11.17,11.17,0,0,1-5.25-1.22,12.17,12.17,0,0,1-4-3.31,15.08,15.08,0,0,1-2.51-4.89,20.69,20.69,0,0,1,0-11.94,14.94,14.94,0,0,1,2.47-4.82,11.88,11.88,0,0,1,3.87-3.22,10.66,10.66,0,0,1,5-1.19c.62,0,1.28,0,2,.1a7.5,7.5,0,0,1,2.2.56,9.79,9.79,0,0,1,2.33,1.41,12.38,12.38,0,0,1,2.37,2.65V116.5h3.76Zm-3.76-15.82a16,16,0,0,0-.61-4.29,11.42,11.42,0,0,0-1.64-3.5,8,8,0,0,0-2.58-2.36,6.93,6.93,0,0,0-3.45-.86,7.74,7.74,0,0,0-3.67.88,9.13,9.13,0,0,0-2.91,2.42,11.77,11.77,0,0,0-1.91,3.62,14,14,0,0,0-.69,4.44,14.25,14.25,0,0,0,.69,4.48,12,12,0,0,0,1.91,3.66,9.29,9.29,0,0,0,2.91,2.47,7.54,7.54,0,0,0,3.67.91,6.93,6.93,0,0,0,3.5-.89,8.17,8.17,0,0,0,2.6-2.44,11.81,11.81,0,0,0,1.62-3.61,17.22,17.22,0,0,0,.56-4.45Z"/><path id="l-text" class="cls-6" d="M252.22,91.75v46.18H277v7.89H243.24V91.75Z"/><g id="b-mountain"><g class="cls-7"><polygon class="cls-6" points="147.24 124.62 154.32 117.04 154.59 137.27 147.51 144.85 147.24 124.62"/><path class="cls-6" d="M152.63,108.53l7.08-7.58-.24.26a19.52,19.52,0,0,0-3.83,6.69,26.46,26.46,0,0,0-1.32,9.14l-7.08,7.58a26.46,26.46,0,0,1,1.32-9.14,19.52,19.52,0,0,1,3.83-6.69Z"/><polygon class="cls-8" points="183.07 117.88 190.15 110.3 193.11 110.24 186.03 117.82 183.07 117.88"/><path class="cls-8" d="M152.63,108.53l7.08-7.58a16.3,16.3,0,0,1,5.43-3.86A16.89,16.89,0,0,1,172,95.71a20.29,20.29,0,0,1,10.31,2.88c3.13,1.86,7.62,7.21,7.82,11.71l-7.08,7.58c-.2-4.5-4.69-9.85-7.82-11.71a20.29,20.29,0,0,0-10.31-2.88,16.89,16.89,0,0,0-6.88,1.38A16.3,16.3,0,0,0,152.63,108.53Z"/><path class="cls-6" d="M150.45,106.47l7.08-7.58a19.36,19.36,0,0,1,6.37-4.52A19.66,19.66,0,0,1,172,92.74a23.23,23.23,0,0,1,11.83,3.31,22,22,0,0,1,6.31,6.24L183,109.87a22,22,0,0,0-6.31-6.24,23.23,23.23,0,0,0-11.83-3.31,19.66,19.66,0,0,0-8.08,1.63A19.36,19.36,0,0,0,150.45,106.47Z"/><polygon class="cls-6" points="147.51 144.85 154.59 137.27 234.69 137.94 227.61 145.53 147.51 144.85"/><path class="cls-6" d="M191.3,93.59,198.38,86a21.68,21.68,0,0,0-2.31,3c-1.36,2.1-3.54,7.62-3,21.11L186,117.69c-.58-13.49,1.6-19,3-21.11A21.68,21.68,0,0,1,191.3,93.59Z"/><polygon class="cls-8" points="227.15 110.94 234.23 103.36 234.69 137.95 227.61 145.53 227.15 110.94"/><path class="cls-8" d="M191.3,93.59,198.38,86a16.18,16.18,0,0,1,2.15-1.94,15.93,15.93,0,0,1,5.37-2.68,22.47,22.47,0,0,1,6.13-.8L205,88.17a22.47,22.47,0,0,0-6.13.8,15.93,15.93,0,0,0-5.37,2.68A16.18,16.18,0,0,0,191.3,93.59Z"/><polygon class="cls-6" points="230.11 110.97 237.19 103.39 237.7 140.93 230.62 148.51 230.11 110.97"/><path class="cls-8" d="M232.39,94.89a22,22,0,0,1,1.84,8.47L228,110.05l-.82.89a22,22,0,0,0-1.84-8.47l7.08-7.59Z"/><path class="cls-8" d="M220.52,82.5l-7.08,7.58A20.12,20.12,0,0,0,205,88.17L212,80.59A20.12,20.12,0,0,1,220.52,82.5Z"/><path class="cls-8" d="M232.39,94.88l-7.08,7.58a24.48,24.48,0,0,0-4.83-7.31,23.36,23.36,0,0,0-7-5.07l7.08-7.58h0a23.36,23.36,0,0,1,7,5.07A24.48,24.48,0,0,1,232.39,94.88Z"/><path class="cls-8" d="M205,88.17a20.12,20.12,0,0,1,8.49,1.91,23.36,23.36,0,0,1,7,5.07,24.4,24.4,0,0,1,4.83,7.32,22,22,0,0,1,1.84,8.47l.46,34.59-80.1-.68-.27-20.23a26.46,26.46,0,0,1,1.32-9.14,19.52,19.52,0,0,1,3.83-6.69,16.39,16.39,0,0,1,5.67-4.12,16.89,16.89,0,0,1,6.88-1.38,20.29,20.29,0,0,1,10.31,2.88c3.13,1.86,7.62,7.21,7.82,11.71l3-.06c-.58-13.62,1.6-19.14,3-21.24a19,19,0,0,1,4.46-4.93A15.93,15.93,0,0,1,198.82,89,22.47,22.47,0,0,1,205,88.17Z"/><path class="cls-6" d="M228,101.34l7.08-7.58a25,25,0,0,1,2.07,9.62L230.11,111A25,25,0,0,0,228,101.34Z"/><path class="cls-6" d="M189.1,91.55,196.18,84a20.06,20.06,0,0,1,2.53-2.29A18.77,18.77,0,0,1,205,78.54a25,25,0,0,1,7-.91,23,23,0,0,1,9.74,2.19,26.56,26.56,0,0,1,8,5.73,27.85,27.85,0,0,1,5.42,8.21L228,101.34a27.85,27.85,0,0,0-5.42-8.21,26.56,26.56,0,0,0-8-5.73,23,23,0,0,0-9.74-2.19,25,25,0,0,0-6.95.91,18.77,18.77,0,0,0-6.33,3.14A20.06,20.06,0,0,0,189.1,91.55Z"/><path class="cls-6" d="M228,101.34a25,25,0,0,1,2.07,9.62l.51,37.55-86.05-.73-.31-23.19a29.75,29.75,0,0,1,1.49-10.14,22.49,22.49,0,0,1,4.41-7.66,19.32,19.32,0,0,1,6.66-4.84,19.66,19.66,0,0,1,8.08-1.63,23.23,23.23,0,0,1,11.83,3.31,22,22,0,0,1,6.31,6.24c.28-6.77,1.45-11.86,3.44-14.94a22.12,22.12,0,0,1,5.15-5.67A18.77,18.77,0,0,1,198,86.12a25,25,0,0,1,6.95-.91,23,23,0,0,1,9.74,2.19,26.56,26.56,0,0,1,8,5.73A27.85,27.85,0,0,1,228,101.34Zm-.43,44.19-.46-34.59a22,22,0,0,0-1.84-8.47,24.4,24.4,0,0,0-4.83-7.32,23.36,23.36,0,0,0-7-5.07A20.12,20.12,0,0,0,205,88.17a22.47,22.47,0,0,0-6.13.8,15.93,15.93,0,0,0-5.37,2.68A19,19,0,0,0,189,96.58c-1.36,2.1-3.54,7.62-3,21.11l-3,.19c-.2-4.5-4.69-9.85-7.82-11.71a20.29,20.29,0,0,0-10.31-2.88,16.89,16.89,0,0,0-6.88,1.38,16.39,16.39,0,0,0-5.67,4.12,19.52,19.52,0,0,0-3.83,6.69,26.46,26.46,0,0,0-1.32,9.14l.27,20.23,80.1.68"/></g><path class="cls-9" d="M171.24,141.09V126.21a14,14,0,0,0-.79-4.77,11.89,11.89,0,0,0-2.14-3.72,9.75,9.75,0,0,0-3.16-2.42,8.78,8.78,0,0,0-3.85-.87,9.46,9.46,0,0,0-3.49.64A7.37,7.37,0,0,0,155,117a9.24,9.24,0,0,0-1.84,3.31,15.55,15.55,0,0,0-.66,4.82v16Z"/><path class="cls-10" d="M215,141.09V127a52.74,52.74,0,0,0-.79-9.06,16.32,16.32,0,0,0-2.36-5,12.31,12.31,0,0,0-4-3.63,11.7,11.7,0,0,0-5.83-1.39,11.48,11.48,0,0,0-5.23,1.24c-1.64.83-1.3.25-2.55,1.82a18.08,18.08,0,0,0-3,5.74,24.73,24.73,0,0,0-1.09,7.62v16.75Z"/></g><g id="flag"><rect class="cls-5" x="159.78" y="23.37" width="3.56" height="71.2"/><polyline class="cls-5" points="165.12 53.63 165.12 23.37 197.16 39.39"/></g><g id="o-man"><g id="body"><path id="feet_right" class="cls-11" d="M275.54,132.75c0,2.43-1,4.4-2.12,4.4s-2.13-2-2.13-4.4.95-4.4,2.13-4.4S275.54,130.32,275.54,132.75Z"/><path id="feet_left" class="cls-11" d="M285.1,132.75c0,2.43-1,4.4-2.12,4.4s-2.13-2-2.13-4.4.95-4.4,2.13-4.4S285.1,130.32,285.1,132.75Z"/><path id="hand_right" class="cls-11" d="M258.65,103.17c2,1.32,3.08,3.21,2.44,4.21s-2.76.76-4.75-.56-3.09-3.21-2.45-4.22S256.66,101.84,258.65,103.17Z"/><path id="hand_left" class="cls-11" d="M295.28,113c2,1.32,3.08,3.21,2.45,4.22s-2.77.76-4.76-.56-3.09-3.21-2.45-4.22S293.29,111.64,295.28,113Z"/><path class="cls-12" d="M262.67,108.62a25.8,25.8,0,0,1,1-7.35,18.06,18.06,0,0,1,3-6,14.24,14.24,0,0,1,11.68-5.56,14.43,14.43,0,0,1,11.76,5.56,18,18,0,0,1,3.1,6,26.53,26.53,0,0,1,0,14.71,17.79,17.79,0,0,1-3.1,6,14.71,14.71,0,0,1-5,4,15,15,0,0,1-6.77,1.47,14.82,14.82,0,0,1-6.74-1.47,14.35,14.35,0,0,1-4.94-4,17.87,17.87,0,0,1-3-6A25.82,25.82,0,0,1,262.67,108.62Zm7.61-.59a12.76,12.76,0,0,0,.55,3.81,9.33,9.33,0,0,0,1.56,3.12,7.68,7.68,0,0,0,2.48,2.1,7.27,7.27,0,0,0,6.55,0,7.72,7.72,0,0,0,2.49-2.1,10,10,0,0,0,1.58-3.12A12.76,12.76,0,0,0,286,108a12.94,12.94,0,0,0-.55-3.83,10,10,0,0,0-1.58-3.14,7.54,7.54,0,0,0-2.49-2.12,7.27,7.27,0,0,0-6.55,0,7.51,7.51,0,0,0-2.48,2.12,9.34,9.34,0,0,0-1.56,3.14A12.94,12.94,0,0,0,270.28,108Z"/></g><g id="hat"><polygon class="cls-11" points="285.54 97.72 273.02 93.16 277.47 80.33 289.99 84.89 285.54 97.72"/><polygon class="cls-11" points="272.99 93.15 268.33 91.45 270 86.64 274.66 88.34 272.99 93.15"/></g></g></g></g></g></g></svg>