<svg width="181" height="92" viewBox="0 0 181 92" fill="none" xmlns="http://www.w3.org/2000/svg">
<path d="M134.228 29.0769H97.6936C95.5717 29.0704 93.5387 28.2279 92.0383 26.7335C90.538 25.239 89.6922 23.214 89.6856 21.1005C89.6908 18.9862 90.5361 16.9599 92.0366 15.4644C93.5371 13.9689 95.5709 13.1257 97.6936 13.1192H106.421C89.1018 7.84892 70.4251 9.2659 54.1068 17.0882C37.7884 24.9106 25.0244 38.565 18.3539 55.3351H30.1498C31.2185 55.3086 32.2818 55.4954 33.2769 55.8845C34.2721 56.2735 35.179 56.857 35.9443 57.6005C36.7096 58.3441 37.3177 59.2326 37.733 60.2138C38.1482 61.1951 38.3622 62.2491 38.3622 63.314C38.3622 64.3788 38.1482 65.4329 37.733 66.4141C37.3177 67.3953 36.7096 68.2839 35.9443 69.0274C35.179 69.7709 34.2721 70.3544 33.2769 70.7435C32.2818 71.1325 31.2185 71.3193 30.1498 71.2928H14.0942C13.5935 74.7319 13.3413 78.2024 13.3396 81.6774C48.5 81.6774 29.5 81.6774 48.5 81.6774C67.5 81.6774 71 81.6774 83.5 81.6774C134.228 81.6774 83.5 81.6774 134.228 81.6774C153.47 81.6774 134.228 81.6774 153.47 81.6774C157.314 81.6774 157.5 81.6774 157.5 81.6774C157.5 81.6774 157.325 69.8542 153.47 58.5806C149.616 47.3069 143.003 37.1671 134.228 29.0769Z" fill="white"/>
<path d="M154.626 52.7927L167.154 47.4348L165.087 43.0294L167.637 41.9385L173.173 53.7369L170.623 54.8278L168.56 50.4325L156.032 55.7904L154.626 52.7927Z" fill="white"/>
<path d="M156.552 57.4823L155.374 54.5704L166.522 50.4884L167.616 53.193L166.031 53.7734C166.967 53.9621 167.628 54.196 168.014 54.475C168.403 54.7609 168.693 55.1388 168.883 55.6085C169.151 56.2718 169.224 56.9787 169.102 57.7293L166.166 57.7695C166.289 57.1611 166.266 56.6462 166.095 56.2248C165.93 55.8172 165.675 55.5141 165.329 55.3154C164.991 55.1142 164.491 55.0395 163.829 55.0915C163.17 55.1505 161.892 55.5271 159.995 56.2215L156.552 57.4823Z" fill="white"/>
<path d="M169.656 54.2731L172.408 53.3616L173.461 56.3122L170.71 57.2237L169.656 54.2731ZM156.892 58.501L168.132 54.7779L169.186 57.7285L157.945 61.4516L156.892 58.501Z" fill="white"/>
<path d="M174.619 59.8723L176.219 66.2311C176.536 67.4898 176.718 68.4392 176.763 69.0793C176.818 69.7249 176.739 70.3286 176.527 70.8905C176.316 71.4595 175.972 71.9714 175.495 72.4261C175.024 72.879 174.444 73.1852 173.753 73.3445C173.004 73.5172 172.266 73.4731 171.539 73.2122C170.814 72.9586 170.209 72.5242 169.723 71.9091C169.684 72.9438 169.388 73.8005 168.836 74.479C168.283 75.1575 167.546 75.6032 166.623 75.8162C165.896 75.9839 165.144 75.9774 164.368 75.7967C163.601 75.6215 162.937 75.2888 162.375 74.7984C161.822 74.3136 161.391 73.6552 161.082 72.8234C160.889 72.3015 160.527 71.0186 159.998 68.9747L158.635 63.5599L174.619 59.8723ZM172.767 63.698L169.071 64.5507L169.601 66.6559C169.916 67.9074 170.13 68.6809 170.242 68.9763C170.446 69.511 170.744 69.8979 171.134 70.1368C171.534 70.3813 171.992 70.4441 172.508 70.325C173.003 70.211 173.368 69.9813 173.604 69.6359C173.849 69.2962 173.937 68.8511 173.868 68.3007C173.824 67.974 173.612 67.0547 173.231 65.5427L172.767 63.698ZM166.41 65.1645L162.136 66.1506L162.885 69.1238C163.176 70.2813 163.394 71.008 163.537 71.304C163.745 71.7613 164.053 72.0997 164.462 72.3191C164.88 72.5442 165.373 72.5913 165.939 72.4605C166.419 72.3498 166.797 72.1401 167.073 71.8315C167.349 71.5229 167.508 71.1303 167.55 70.6538C167.593 70.1845 167.431 69.2193 167.063 67.758L166.41 65.1645Z" fill="white"/>
<path d="M160.356 70.888L176.506 68.1622L177.113 71.2422L160.963 73.968L160.356 70.888Z" fill="white"/>
<path d="M166.83 72.0019C167.867 71.8796 168.904 72.0163 169.943 72.412C170.982 72.8077 171.819 73.4411 172.454 74.3124C173.091 75.1911 173.486 76.2071 173.64 77.3605C173.878 79.1423 173.492 80.6711 172.481 81.9468C171.478 83.2217 170.091 83.9635 168.32 84.1723C166.535 84.3829 164.976 83.9809 163.644 82.9665C162.321 81.9585 161.543 80.5821 161.309 78.8373C161.165 77.7579 161.272 76.6976 161.629 75.6567C161.988 74.6231 162.603 73.7957 163.476 73.1746C164.356 72.5527 165.474 72.1618 166.83 72.0019ZM167.09 75.2155C165.919 75.3535 165.06 75.7365 164.512 76.3644C163.964 76.9923 163.744 77.7128 163.853 78.5261C163.961 79.3394 164.363 79.9829 165.059 80.4566C165.755 80.9377 166.696 81.1084 167.881 80.9686C169.037 80.8323 169.888 80.4502 170.437 79.8223C170.986 79.2018 171.206 78.485 171.097 77.6717C170.989 76.8584 170.586 76.2112 169.89 75.7301C169.193 75.249 168.26 75.0774 167.09 75.2155Z" fill="white"/>
<path d="M160.87 79.3239L160.653 82.9433C160.237 83.0234 159.958 83.1757 159.814 83.4C159.608 83.7098 159.525 84.1861 159.564 84.8287C159.614 85.6507 159.775 86.2612 160.047 86.6602C160.228 86.9287 160.507 87.125 160.882 87.2491C161.149 87.3335 161.635 87.3587 162.338 87.3245L164.076 87.2399C162.732 86.3609 162.017 85.204 161.929 83.7693C161.832 82.1702 162.431 80.8706 163.727 79.8707C164.752 79.0864 166.061 78.6555 167.653 78.578C169.65 78.4809 171.205 78.8849 172.317 79.7901C173.431 80.7028 174.031 81.8727 174.118 83.3C174.208 84.7721 173.635 86.0179 172.4 87.0373L174.071 86.956L174.251 89.9039L163.562 90.424C162.156 90.4923 161.098 90.4276 160.389 90.2298C159.679 90.032 159.113 89.7335 158.692 89.3343C158.27 88.9351 157.925 88.3898 157.658 87.6983C157.391 87.0142 157.225 86.1379 157.16 85.0693C157.037 83.0517 157.297 81.6038 157.941 80.7256C158.577 79.8477 159.426 79.3829 160.488 79.3313C160.593 79.3262 160.72 79.3237 160.87 79.3239ZM168.03 81.7974C166.766 81.8589 165.854 82.1469 165.293 82.6613C164.74 83.1829 164.485 83.8024 164.529 84.5197C164.576 85.2894 164.915 85.925 165.545 86.4264C166.183 86.9275 167.093 87.1493 168.274 87.0918C169.508 87.0318 170.409 86.7332 170.976 86.1959C171.543 85.6587 171.803 85.0015 171.756 84.2244C171.71 83.4696 171.376 82.86 170.755 82.3956C170.142 81.9382 169.234 81.7389 168.03 81.7974Z" fill="white"/>
<path d="M1.41032 85.3812C1.41032 63.7413 10.2455 42.9877 25.9723 27.686C41.6991 12.3843 63.0293 3.78784 85.2703 3.78784C107.511 3.78784 128.841 12.3843 144.568 27.686C160.295 42.9877 169.13 63.7413 169.13 85.3812" stroke="white" stroke-miterlimit="10"/>
<path d="M44.8153 5.21699H46.5926V7.37798C47.0841 6.70688 47.6692 6.10909 48.3303 5.60271C48.9059 5.18295 49.6028 4.96081 50.3161 4.96974C50.4555 4.96898 50.5948 4.97723 50.7332 4.99447C50.8717 5.00566 51.0075 5.03905 51.1353 5.09337V7.19502C50.8528 7.0892 50.5534 7.03558 50.2516 7.03678C49.7187 7.02795 49.1903 7.13424 48.7026 7.34831C48.2663 7.5424 47.8756 7.82541 47.5558 8.17908C47.2448 8.5349 47.0039 8.94592 46.8458 9.39062C46.6773 9.84834 46.5916 10.3322 46.5926 10.8197V14.9588H44.8153V5.21699Z" fill="#F19655"/>
<path d="M55.9907 2.20544V4.64336H54.2233V2.20544H55.9907ZM55.9907 6.0972V14.9587H54.2233V6.0972H55.9907Z" fill="#F19655"/>
<path d="M43.2763 0.573608V2.62086H38.8677V14.7264H36.9513V2.62086H32.5428V0.573608H43.2763Z" fill="#F19655"/>
<path d="M138.116 63.5142C138.116 64.5032 137.947 76.4554 137.619 77.212C137.31 77.9341 136.855 78.5854 136.284 79.1257C135.73 79.6403 135.076 80.0358 134.362 80.2878C133.643 80.5488 132.884 80.6811 132.118 80.6785C131.483 80.6813 130.851 80.593 130.242 80.4164C129.658 80.2445 129.109 79.9735 128.618 79.6153C128.104 79.2317 127.658 78.7654 127.298 78.2356C126.879 77.6237 126.545 76.9584 126.305 76.2576H128.186C128.506 77.0344 129.05 77.6989 129.75 78.1664C130.35 78.5037 131.016 78.7051 131.703 78.7564C132.389 78.8077 133.079 78.7076 133.722 78.4631C134.21 78.2666 134.655 77.9778 135.033 77.6126C135.414 77.2423 135.721 76.8025 135.936 76.317C136.159 75.8224 136.269 64.2263 136.269 63.6329V61.0911C135.991 61.525 135.657 61.9207 135.276 62.2681C134.951 62.5568 134.588 62.8013 134.198 62.995C133.851 63.1699 133.482 63.2979 133.101 63.3757C132.758 63.4481 132.409 63.4862 132.059 63.4895C131.153 63.5033 130.259 63.2962 129.452 62.8862C128.68 62.4892 128.002 61.9309 127.466 61.2494C126.906 60.5262 126.483 59.7065 126.22 58.8312C125.638 56.9059 125.638 54.8522 126.22 52.9268C126.48 52.0646 126.895 51.2568 127.447 50.5433C127.965 49.8819 128.621 49.339 129.368 48.951C130.135 48.5561 130.987 48.3541 131.85 48.3626C132.158 48.3626 132.486 48.3626 132.843 48.412C133.219 48.4486 133.587 48.542 133.935 48.6889C134.352 48.8665 134.741 49.1012 135.092 49.3862C135.546 49.7643 135.942 50.2057 136.269 50.6966V48.6098H138.135L138.116 63.5142ZM136.249 55.6911C136.245 54.9736 136.143 54.2599 135.946 53.5697C135.775 52.9509 135.5 52.3656 135.132 51.8389C134.796 51.3606 134.359 50.9621 133.851 50.6719C133.327 50.3842 132.736 50.2376 132.138 50.2466C131.504 50.2397 130.878 50.3892 130.316 50.6818C129.756 50.9758 129.264 51.3835 128.871 51.8785C128.453 52.4155 128.132 53.0213 127.923 53.6686C127.691 54.3773 127.575 55.1187 127.581 55.8642C127.575 56.6161 127.691 57.3641 127.923 58.0796C128.132 58.7329 128.453 59.3453 128.871 59.8895C129.263 60.3918 129.755 60.8078 130.316 61.1109C130.875 61.4126 131.502 61.5675 132.138 61.5609C132.746 61.5698 133.346 61.4179 133.876 61.1208C134.39 60.8182 134.831 60.4062 135.167 59.9142C135.534 59.3684 135.805 58.7649 135.971 58.129C136.159 57.4107 136.253 56.6709 136.249 55.9285V55.6911Z" fill="#91ADA5"/>
<path d="M106.218 36.3708V59.2071H118.52V63.1088H101.76V36.3708H106.218Z" fill="#91ADA5"/>
<path d="M54.0992 52.6253L57.6141 48.877L57.7482 58.8808L54.2332 62.6292L54.0992 52.6253Z" fill="#91ADA5"/>
<path d="M56.7751 44.6686L60.2901 40.9203L60.1709 41.0489C59.3226 42.0147 58.6762 43.1394 58.2695 44.3571C57.7867 45.8138 57.5649 47.3437 57.6141 48.8769L54.0992 52.6252C54.0499 51.092 54.2718 49.5621 54.7545 48.1055C55.1612 46.8878 55.8077 45.7631 56.656 44.7972L56.7751 44.6686Z" fill="#91ADA5"/>
<path d="M71.8875 49.2923L75.4024 45.544L76.8719 45.5143L73.357 49.2626L71.8875 49.2923Z" fill="#BDDBD1"/>
<path d="M56.7751 44.6686L60.2901 40.9202C61.0472 40.1059 61.9649 39.4561 62.9859 39.0115C64.0608 38.5497 65.221 38.3172 66.3916 38.329C68.195 38.3388 69.9627 38.8307 71.5101 39.7532C73.0641 40.673 75.2932 43.3186 75.3925 45.5439L71.8775 49.2922C71.7782 47.067 69.5491 44.4213 67.9952 43.5016C66.4477 42.579 64.68 42.0872 62.8766 42.0774C61.7027 42.0642 60.539 42.2967 59.461 42.7598C58.4436 43.2056 57.5293 43.8554 56.7751 44.6686V44.6686Z" fill="#BDDBD1"/>
<path d="M55.6928 43.6499L59.2078 39.9015C60.0985 38.9502 61.1746 38.1897 62.3702 37.6664C63.6382 37.117 65.0089 36.8423 66.3916 36.8603C68.4613 36.8711 70.4899 37.4365 72.2647 38.4972C73.5086 39.3031 74.5745 40.353 75.3974 41.5829L71.8527 45.3312C71.0297 44.1014 69.9638 43.0514 68.72 42.2455C66.9452 41.1848 64.9165 40.6195 62.8468 40.6087C61.4675 40.592 60.1004 40.8667 58.8354 41.4147C57.6469 41.9404 56.5778 42.7008 55.6928 43.6499V43.6499Z" fill="#91ADA5"/>
<path d="M54.2332 62.6291L57.7482 58.8807L97.5148 59.2121L93.9999 62.9654L54.2332 62.6291Z" fill="#91ADA5"/>
<path d="M75.9733 37.2806L79.4883 33.5273C79.0633 33.9876 78.6796 34.484 78.3414 35.0109C77.6663 36.0493 76.584 38.779 76.8521 45.4499L73.3421 49.1982C73.0541 42.5273 74.1364 39.8026 74.8315 38.7592C75.1682 38.2342 75.5503 37.7395 75.9733 37.2806V37.2806Z" fill="#91ADA5"/>
<path d="M93.7715 45.8604L97.2865 42.1121L97.5149 59.217L93.9999 62.9654L93.7715 45.8604Z" fill="#BDDBD1"/>
<path d="M75.9733 37.2807L79.4883 33.5274C79.8146 33.1765 80.1718 32.8554 80.5557 32.5681C81.352 31.962 82.2567 31.5123 83.2217 31.2428C84.213 30.9719 85.2371 30.8388 86.265 30.8472L82.7749 34.6005C81.747 34.592 80.7228 34.7252 79.7315 34.9961C78.7666 35.2656 77.8619 35.7153 77.0655 36.3214C76.6731 36.6075 76.3075 36.9286 75.9733 37.2807V37.2807Z" fill="#BDDBD1"/>
<path d="M95.241 45.8752L98.756 42.1268L99.0092 60.6906L95.4942 64.4389L95.241 45.8752Z" fill="#91ADA5"/>
<path d="M96.373 37.9235C96.9533 39.2455 97.2638 40.6693 97.2865 42.112L94.1935 45.4202L93.7864 45.8603C93.7638 44.4177 93.4532 42.9939 92.8729 41.6719L96.3879 37.9186L96.373 37.9235Z" fill="#BDDBD1"/>
<path d="M90.48 31.7967L86.965 35.545C85.6536 34.9312 84.2238 34.6089 82.7749 34.6005L86.2501 30.8522C87.7125 30.8548 89.1564 31.1772 90.48 31.7967V31.7967Z" fill="#BDDBD1"/>
<path d="M96.373 37.9186L92.858 41.667C92.2835 40.3282 91.4712 39.1036 90.4601 38.0521C89.4684 37.0084 88.2898 36.1581 86.9849 35.545L90.4998 31.7966C91.8047 32.4097 92.9833 33.26 93.9751 34.3038C94.9861 35.3553 95.7984 36.5798 96.373 37.9186V37.9186Z" fill="#BDDBD1"/>
<path d="M82.7749 34.6005C84.2322 34.6053 85.6709 34.9277 86.9899 35.545C88.2948 36.1581 89.4733 37.0084 90.4651 38.0522C91.4773 39.1046 92.2897 40.331 92.863 41.672C93.4433 42.994 93.7539 44.4177 93.7765 45.8604L94.0049 62.9654L54.2382 62.6291L54.1042 52.6252C54.0549 51.092 54.2767 49.5622 54.7595 48.1055C55.1662 46.8878 55.8126 45.7631 56.6609 44.7972C57.4408 43.9239 58.4011 43.2289 59.4759 42.7599C60.5539 42.2967 61.7176 42.0642 62.8915 42.0774C64.695 42.0872 66.4627 42.5791 68.0101 43.5016C69.564 44.4214 71.7931 47.067 71.8924 49.2923L73.3818 49.2626C73.0939 42.5274 74.1761 39.7978 74.8712 38.7593C75.4597 37.8234 76.2092 36.9981 77.0854 36.3214C77.8695 35.7256 78.7586 35.2812 79.7067 35.011C80.7053 34.7328 81.738 34.5946 82.7749 34.6005V34.6005Z" fill="#BDDBD1"/>
<path d="M94.1935 41.1131L97.7085 37.3647C98.364 38.867 98.7134 40.484 98.7361 42.1219L95.241 45.89C95.2146 44.2441 94.8585 42.6201 94.1935 41.1131V41.1131Z" fill="#91ADA5"/>
<path d="M74.8811 36.2719L78.3961 32.5384C78.7817 32.1261 79.2019 31.7472 79.6521 31.406C80.5844 30.6919 81.644 30.16 82.7749 29.8384C83.9061 29.5254 85.0761 29.3739 86.2501 29.3884C87.9221 29.3924 89.5728 29.7621 91.0856 30.4714C92.5752 31.1612 93.9222 32.1222 95.0573 33.3049C96.189 34.4884 97.1002 35.8632 97.7482 37.3648L94.1935 41.1131C93.5455 39.6115 92.6344 38.2368 91.5027 37.0532C90.3675 35.8706 89.0205 34.9096 87.531 34.2197C86.0182 33.5105 84.3674 33.1408 82.6954 33.1368C81.5298 33.1246 80.3682 33.2761 79.245 33.5868C78.1082 33.9015 77.0418 34.4284 76.1024 35.1395C75.6642 35.4823 75.2557 35.8611 74.8811 36.2719V36.2719Z" fill="#91ADA5"/>
<path d="M94.1935 41.1132C94.8491 42.6154 95.1984 44.2324 95.2212 45.8703L95.4744 64.439L52.7538 64.078L52.5999 52.6104C52.5534 50.9089 52.8037 49.2123 53.3396 47.5961C53.8107 46.2017 54.5548 44.9142 55.529 43.8082C56.4457 42.7831 57.5734 41.9667 58.8354 41.4148C60.1004 40.8668 61.4675 40.5921 62.8468 40.6088C64.9166 40.6195 66.9452 41.1849 68.72 42.2456C69.9638 43.0515 71.0297 44.1014 71.8527 45.3313C71.9917 41.9835 72.5726 39.4665 73.5605 37.9434C74.2426 36.8678 75.1078 35.9189 76.1173 35.1395C77.0686 34.424 78.1489 33.8969 79.2996 33.5868C80.4228 33.2761 81.5844 33.1246 82.75 33.1368C84.422 33.1408 86.0728 33.5105 87.5856 34.2198C89.0751 34.9096 90.4221 35.8706 91.5573 37.0533C92.6695 38.2411 93.562 39.6156 94.1935 41.1132V41.1132ZM93.98 62.9653L93.7516 45.8604C93.729 44.4177 93.4185 42.9939 92.8382 41.6719C92.2649 40.331 91.4525 39.1046 90.4402 38.0522C89.4485 37.0084 88.2699 36.1581 86.965 35.545C85.6536 34.9312 84.2238 34.6089 82.7749 34.6005C81.747 34.5921 80.7228 34.7252 79.7315 34.9961C78.7666 35.2656 77.8619 35.7154 77.0655 36.3214C76.1822 36.9964 75.4259 37.8217 74.8315 38.7593C74.1563 39.7978 73.074 42.5274 73.3421 49.1983L71.8527 49.2923C71.7534 47.067 69.5243 44.4214 67.9703 43.5016C66.4229 42.5791 64.6552 42.0872 62.8518 42.0774C61.6778 42.0642 60.5142 42.2967 59.4362 42.7599C58.3613 43.2289 57.4011 43.9239 56.6212 44.7972C55.7729 45.7631 55.1265 46.8878 54.7198 48.1055C54.237 49.5621 54.0152 51.092 54.0644 52.6252L54.1985 62.6291L93.9651 62.9653" fill="#91ADA5"/>
<path d="M66.0143 60.7697V53.4115C66.0219 52.6085 65.8892 51.8103 65.6221 51.0527C65.3829 50.3804 65.0229 49.757 64.5596 49.2131C64.1249 48.711 63.5908 48.3036 62.9908 48.0164C62.3947 47.7304 61.7411 47.5832 61.0794 47.5862C60.487 47.5819 59.8991 47.6893 59.3468 47.9027C58.8133 48.1078 58.3355 48.4347 57.9517 48.8571C57.537 49.334 57.226 49.8913 57.0382 50.4939C56.8041 51.2663 56.6936 52.0707 56.7106 52.8774V60.7895L66.0143 60.7697Z" fill="#91ADA5" stroke="#91ADA5" stroke-width="3" stroke-miterlimit="10"/>
<path opacity="0.36" d="M87.7395 60.7698V53.8022C87.7385 52.3003 87.6073 50.8014 87.3473 49.322C87.1008 48.4374 86.7045 47.6013 86.1756 46.8495C85.6553 46.112 84.977 45.4989 84.1898 45.0544C83.3013 44.5789 82.3037 44.342 81.2954 44.367C80.3934 44.3639 79.5035 44.5741 78.6989 44.9802C77.8847 45.3907 78.0535 45.1039 77.4329 45.8802C76.769 46.7294 76.2644 47.691 75.9435 48.7187C75.5668 49.9389 75.3842 51.2103 75.4024 52.4868V60.7698H87.7395Z" fill="#91ADA5" stroke="#91ADA5" stroke-width="3" stroke-miterlimit="10"/>
<path d="M62.0922 2.55652H60.3248V37.7653H62.0922V2.55652Z" fill="#F19655"/>
<path d="M62.9759 17.5203V2.55652L78.8826 10.4785" fill="#F19655"/>
<path d="M117.795 56.6455C117.795 57.8472 117.299 58.8214 116.743 58.8214C116.187 58.8214 115.685 57.8324 115.685 56.6455C115.685 55.4587 116.157 54.4697 116.743 54.4697C117.329 54.4697 117.795 55.4439 117.795 56.6455Z" fill="#EFB9A9"/>
<path d="M122.541 56.6455C122.541 57.8472 122.045 58.8214 121.489 58.8214C120.933 58.8214 120.432 57.8324 120.432 56.6455C120.432 55.4587 120.903 54.4697 121.489 54.4697C122.075 54.4697 122.541 55.4439 122.541 56.6455Z" fill="#EFB9A9"/>
<path d="M109.41 42.0182C110.403 42.6709 110.939 43.6055 110.621 44.1C110.304 44.5945 109.251 44.4759 108.263 43.8231C107.275 43.1704 106.729 42.2358 107.047 41.7363C107.365 41.2369 108.422 41.3605 109.41 42.0182Z" fill="#EFB9A9"/>
<path d="M127.596 46.8791C128.588 47.5318 129.125 48.4664 128.812 48.9659C128.499 49.4653 127.437 49.3417 126.449 48.689C125.461 48.0362 124.915 47.1016 125.232 46.6022C125.55 46.1027 126.608 46.2066 127.596 46.8791Z" fill="#EFB9A9"/>
<path d="M111.406 44.7132C111.395 43.4842 111.562 42.26 111.902 41.0786C112.208 40.0056 112.714 38.9992 113.392 38.1116C114.072 37.2298 114.952 36.521 115.96 36.0431C116.967 35.5652 118.075 35.3319 119.19 35.3621C120.312 35.3331 121.424 35.5668 122.438 36.0444C123.452 36.5219 124.34 37.23 125.029 38.1116C125.725 38.995 126.247 40.0017 126.568 41.0786C127.256 43.4548 127.256 45.9765 126.568 48.3528C126.25 49.4306 125.727 50.4377 125.029 51.3198C124.357 52.1527 123.51 52.828 122.546 53.2978C121.498 53.798 120.347 54.047 119.185 54.0247C118.028 54.048 116.882 53.7989 115.839 53.2978C114.884 52.8294 114.046 52.1535 113.387 51.3198C112.707 50.4333 112.201 49.4266 111.897 48.3528C111.558 47.1695 111.393 45.9436 111.406 44.7132ZM115.184 44.4214C115.179 45.0596 115.271 45.6949 115.457 46.3055C115.615 46.8637 115.878 47.3871 116.231 47.8484C116.563 48.278 116.983 48.6321 117.463 48.8868C117.967 49.1402 118.524 49.2723 119.089 49.2723C119.653 49.2723 120.21 49.1402 120.715 48.8868C121.196 48.6322 121.617 48.2782 121.951 47.8484C122.301 47.384 122.567 46.8617 122.735 46.3055C122.916 45.6891 123.001 45.0487 122.988 44.4066C122.993 43.7652 122.901 43.1268 122.715 42.5127C122.548 41.953 122.282 41.4273 121.931 40.9599C121.601 40.5246 121.179 40.1667 120.695 39.9116C120.19 39.6581 119.634 39.5261 119.069 39.5261C118.504 39.5261 117.947 39.6581 117.443 39.9116C116.96 40.1669 116.54 40.5248 116.212 40.9599C115.857 41.4241 115.595 41.951 115.437 42.5127C115.258 43.1278 115.173 43.7662 115.184 44.4066V44.4214Z" fill="#EAE0CB" stroke="#EFB9A9" stroke-miterlimit="10"/>
<path d="M122.76 39.3231L116.544 37.0681L118.754 30.7236L124.969 32.9786L122.76 39.3231Z" fill="#EFB9A9"/>
<path d="M116.529 37.0632L114.216 36.2226L115.045 33.844L117.358 34.6847L116.529 37.0632Z" fill="#EFB9A9"/>
</svg>

