<svg width="60" height="60" viewBox="0 0 60 60" fill="none" xmlns="http://www.w3.org/2000/svg">
<path d="M30 41.25C28.0629 41.25 26.1258 40.6146 24.4734 39.327L0 20.2969V46.875C0 49.9805 2.51836 52.5 5.625 52.5H54.375C57.4816 52.5 60 49.9816 60 46.875V20.2969L35.5313 39.3398C33.8789 40.6172 31.9336 41.25 30 41.25ZM1.90898 17.0273L26.7762 36.375C28.6734 37.8516 31.3312 37.8516 33.2285 36.375L58.0957 17.0273C59.1914 16.0898 60 14.6484 60 13.125C60 10.0184 57.4805 7.5 54.375 7.5H5.625C2.51836 7.5 0 10.0184 0 13.125C0 14.6484 0.704297 16.0898 1.90898 17.0273Z" fill="url(#paint0_linear)"/>
<defs>
<linearGradient id="paint0_linear" x1="30" y1="7.5" x2="30" y2="52.5" gradientUnits="userSpaceOnUse">
<stop stop-color="white"/>
<stop offset="1" stop-color="#E5E5E5"/>
</linearGradient>
</defs>
</svg>
