<?xml version="1.0" encoding="utf-8"?>
<!-- Generator: Adobe Illustrator 25.2.1, SVG Export Plug-In . SVG Version: 6.00 Build 0)  -->
<svg version="1.1" xmlns="http://www.w3.org/2000/svg" xmlns:xlink="http://www.w3.org/1999/xlink" x="0px" y="0px"
	 viewBox="0 0 104.8 38.2" style="enable-background:new 0 0 104.8 38.2;" xml:space="preserve">
<style type="text/css">
	.st0{fill:#FAD0B8;}
	.st1{fill:#FAD0B8;stroke:#EFB9A9;stroke-miterlimit:10;}
	.st2{fill:#FDE9E9;}
	.st3{fill:#E3F7FB;}
</style>
<g id="圖層_1">
	<g id="o-man_3_">
		<g id="body_3_">
			<path id="feet_x5F_right_3_" class="st0" d="M79.8,35c0,1-0.4,1.9-0.9,1.9c-0.5,0-0.9-0.8-0.9-1.9s0.4-1.9,0.9-1.9
				C79.4,33.2,79.8,34,79.8,35z"/>
			<path id="feet_x5F_left_3_" class="st0" d="M83.9,35c0,1-0.4,1.9-0.9,1.9c-0.5,0-0.9-0.8-0.9-1.9s0.4-1.9,0.9-1.9
				C83.5,33.2,83.9,34,83.9,35z"/>
			<path id="hand_x5F_right_3_" class="st0" d="M72.7,22.5c0.8,0.6,1.3,1.4,1,1.8c-0.3,0.4-1.2,0.3-2-0.2c-0.8-0.6-1.3-1.4-1-1.8
				C70.9,21.8,71.8,21.9,72.7,22.5z"/>
			<path id="hand_x5F_left_3_" class="st0" d="M88.2,26.6c0.8,0.6,1.3,1.4,1,1.8c-0.3,0.4-1.2,0.3-2-0.2c-0.8-0.6-1.3-1.4-1-1.8
				C86.5,26,87.4,26.1,88.2,26.6z"/>
			<path class="st1" d="M74.4,24.8c0-1.1,0.1-2.1,0.4-3.1c0.3-1,0.7-1.8,1.3-2.5c0.6-0.7,1.3-1.3,2.1-1.7c0.8-0.4,1.8-0.6,2.9-0.6
				c1.1,0,2,0.2,2.9,0.6c0.8,0.4,1.5,1,2.1,1.7c0.6,0.7,1,1.6,1.3,2.5c0.3,1,0.4,2,0.4,3.1c0,1.1-0.1,2.1-0.4,3.1
				c-0.3,1-0.7,1.8-1.3,2.5c-0.6,0.7-1.3,1.3-2.1,1.7c-0.8,0.4-1.8,0.6-2.9,0.6c-1.1,0-2-0.2-2.9-0.6c-0.8-0.4-1.5-1-2.1-1.7
				c-0.6-0.7-1-1.6-1.3-2.5C74.5,26.9,74.4,25.9,74.4,24.8z M77.6,24.6c0,0.6,0.1,1.1,0.2,1.6c0.2,0.5,0.4,0.9,0.7,1.3
				c0.3,0.4,0.6,0.7,1,0.9c0.4,0.2,0.9,0.3,1.4,0.3c0.5,0,1-0.1,1.4-0.3c0.4-0.2,0.8-0.5,1.1-0.9c0.3-0.4,0.5-0.8,0.7-1.3
				c0.2-0.5,0.2-1,0.2-1.6c0-0.6-0.1-1.1-0.2-1.6c-0.2-0.5-0.4-1-0.7-1.3c-0.3-0.4-0.6-0.7-1.1-0.9c-0.4-0.2-0.9-0.3-1.4-0.3
				c-0.5,0-1,0.1-1.4,0.3c-0.4,0.2-0.8,0.5-1,0.9c-0.3,0.4-0.5,0.8-0.7,1.3C77.7,23.4,77.6,24,77.6,24.6z"/>
		</g>
		<g id="hat_3_">
			<polygon class="st2" points="84.1,20.2 78.8,18.3 80.7,12.8 86,14.8 			"/>
			<polygon class="st2" points="78.8,18.3 76.8,17.5 77.5,15.5 79.5,16.2 			"/>
		</g>
	</g>
</g>
<g id="圖層_4">
	<g>
		<path class="st3" d="M45.8,17.2h5.5c3.3,0,6,0.9,6,4c0,1.4-0.8,3-2.1,3.5v0.1c1.6,0.4,2.9,1.6,2.9,3.8c0,3.3-2.8,4.8-6.3,4.8h-6
			V17.2z M51.2,23.6c1.8,0,2.6-0.7,2.6-1.9c0-1.2-0.8-1.7-2.5-1.7h-1.7v3.6H51.2z M51.5,30.5c2,0,3-0.7,3-2.2c0-1.4-1-2-3-2h-2v4.2
			H51.5z"/>
		<path class="st3" d="M60.8,17.2h3.6v13.1h6.4v3.1h-10V17.2z"/>
		<path class="st3" d="M91.3,25.3c0-5.4,3.6-8.5,7.9-8.5c2.3,0,4,1,5.1,2.1l-1.9,2.3c-0.8-0.7-1.7-1.3-3-1.3c-2.5,0-4.2,2-4.2,5.2
			c0,3.3,1.5,5.2,4.5,5.2c0.6,0,1.3-0.2,1.7-0.5v-2.8h-2.7v-3h5.9v7.4c-1.1,1.1-3.1,2-5.3,2C94.7,33.6,91.3,30.8,91.3,25.3z"/>
	</g>
</g>
<g id="圖層_3">
	<path class="st3" d="M5.4,20.2H0.9v-3.1h12.5v3.1H9v13.1H5.4V20.2z"/>
	<path class="st3" d="M16,17.2h5.8c3.4,0,6.2,1.2,6.2,5c0,3.7-2.8,5.3-6.2,5.3h-2.2v5.8H16V17.2z M21.5,24.6c1.9,0,3-0.8,3-2.4
		c0-1.6-1-2.1-3-2.1h-1.9v4.5H21.5z M21.1,26.5l2.5-2.3l5.2,9.1h-4.1L21.1,26.5z"/>
	<path class="st3" d="M31.1,17.2h3.6v16.1h-3.6V17.2z"/>
</g>
<g id="圖層_2">
	<g id="flag_1_">
		<rect x="38.2" y="4" class="st0" width="1.8" height="29.5"/>
		<polyline class="st0" points="40.8,16.3 40.8,4 52.9,10.5 		"/>
	</g>
</g>
</svg>
