<svg xmlns="http://www.w3.org/2000/svg" viewBox="0 0 55 46.06"><defs><style>.cls-1{fill:#efb9a9;}.cls-2{fill:#eae0cb;stroke:#efb9a9;stroke-miterlimit:10;}.cls-3{fill:#f19655;}</style></defs><g id="Layer_10" data-name="Layer 10"><g id="O_man01"><ellipse id="feet_right" class="cls-1" cx="17.54" cy="41.89" rx="1.28" ry="2.58"/><path id="feet_left" class="cls-1" d="M24.58,41.89c0,1.43-.58,2.59-1.28,2.59S22,43.32,22,41.89s.57-2.58,1.28-2.58S24.58,40.46,24.58,41.89Z"/><path id="hand_right" class="cls-1" d="M5.65,23.51c1.2.78,1.85,1.89,1.47,2.48s-1.66.45-2.86-.33S2.4,23.78,2.78,23.18,4.45,22.74,5.65,23.51Z"/><path id="hand_left" class="cls-1" d="M30.71,30.27c1.2.77,1.85,1.88,1.47,2.48s-1.66.44-2.86-.33-1.86-1.89-1.48-2.48S29.51,29.49,30.71,30.27Z"/><path class="cls-2" d="M11.07,27.72a14.46,14.46,0,0,1,.62-4.32,10.6,10.6,0,0,1,1.82-3.54,8.78,8.78,0,0,1,3-2.38,9,9,0,0,1,4.06-.88,9,9,0,0,1,4.07.88,8.89,8.89,0,0,1,3,2.38A10.7,10.7,0,0,1,29.5,23.4a15.13,15.13,0,0,1,0,8.64,10.41,10.41,0,0,1-1.87,3.52,8.86,8.86,0,0,1-3,2.37,9.12,9.12,0,0,1-4.07.87,9.08,9.08,0,0,1-4.06-.87,8.75,8.75,0,0,1-3-2.37A10.32,10.32,0,0,1,11.69,32,14.46,14.46,0,0,1,11.07,27.72Zm4.59-.35A7.44,7.44,0,0,0,16,29.61a5.66,5.66,0,0,0,.94,1.83,4.8,4.8,0,0,0,1.49,1.24,4.56,4.56,0,0,0,3.95,0,4.62,4.62,0,0,0,1.5-1.24,5.68,5.68,0,0,0,.95-1.83,7.45,7.45,0,0,0,.34-2.24,7.56,7.56,0,0,0-.34-2.25,5.89,5.89,0,0,0-.95-1.85A4.49,4.49,0,0,0,22.36,22a4.47,4.47,0,0,0-3.95,0,4.67,4.67,0,0,0-1.49,1.24A5.87,5.87,0,0,0,16,25.12,7.56,7.56,0,0,0,15.66,27.37Z"/><rect class="cls-1" x="18.41" y="12.21" width="8" height="8" transform="translate(-0.36 31.9) rotate(-70.44)"/><rect class="cls-1" x="15.37" y="14.89" width="3" height="4" transform="translate(-4.7 27.12) rotate(-70.43)"/></g><rect class="cls-3" x="32" y="4.26" width="2" height="40" transform="translate(-0.14 0.19) rotate(-0.34)"/><polyline class="cls-3" points="34.98 21.25 34.89 4.25 52.94 13.15"/></g></svg>