<svg width="60" height="41" viewBox="0 0 60 41" fill="none" xmlns="http://www.w3.org/2000/svg">
<g clip-path="url(#clip0)">
<path d="M58.7462 6.37769C58.0562 3.86729 56.023 1.89018 53.4416 1.21922C48.7626 0 30 0 30 0C30 0 11.2376 0 6.55839 1.21922C3.97694 1.89029 1.9438 3.86729 1.25376 6.37769C0 10.9279 0 20.4217 0 20.4217C0 20.4217 0 29.9152 1.25376 34.4656C1.9438 36.976 3.97694 38.8707 6.55839 39.5416C11.2376 40.7609 30 40.7609 30 40.7609C30 40.7609 48.7624 40.7609 53.4416 39.5416C56.023 38.8707 58.0562 36.976 58.7462 34.4656C60 29.9152 60 20.4217 60 20.4217C60 20.4217 60 10.9279 58.7462 6.37769ZM23.8635 29.0411V11.8021L39.5454 20.4218L23.8635 29.0411Z" fill="#FF0000"/>
</g>
<defs>
<clipPath id="clip0">
<rect width="60" height="40.7609" fill="white"/>
</clipPath>
</defs>
</svg>
